<svg width="60" height="60" viewBox="0 0 60 60" fill="none" xmlns="http://www.w3.org/2000/svg">
<g clip-path="url(#clip0_2118_15517)">
<path d="M51.3298 26.5821C50.911 25.4446 50.0509 24.4291 49.0041 23.6969C45.9822 21.7117 41.3768 21.5703 38.2631 23.365C36.5649 24.2607 35.4488 26.0333 35.1014 27.8588C34.4713 30.8579 34.6341 34.4262 36.8674 36.6742C39.4716 39.036 43.2618 39.5578 46.6321 38.5876C46.7922 38.5558 47.2997 38.4236 47.6497 38.2315L47.7482 38.1878C48.795 37.7378 49.7933 37.005 50.5386 36.0127C52.2587 33.4107 52.3766 29.5121 51.3298 26.5821ZM45.8424 33.3168C45.7235 33.8856 45.3537 34.4748 44.7706 34.6885C43.8423 35.111 42.5863 34.9939 41.7263 34.4996C41.005 33.9778 40.9121 33.1042 40.8193 32.2776C40.7489 30.648 40.6352 28.9223 41.0764 27.4325C41.4222 26.5098 42.3761 26.2724 43.2388 26.2028C44.1448 26.2028 45.0267 26.3457 45.5864 27.1017C45.9348 27.644 45.9134 28.3536 45.9822 28.9925C45.9577 30.3388 46.0745 31.9446 45.8424 33.3168ZM18.2899 34.7845C17.5222 34.736 16.6621 34.8056 15.9189 34.7111L15.9418 26.4132L15.9888 26.3441L18.2899 26.3209C18.3139 24.9741 18.3368 23.5296 18.2659 22.302L9.5021 22.2766L8.05894 22.3025C8.03599 23.5544 8.03599 25.0183 8.05894 26.2961C8.85015 26.3215 9.59285 26.2961 10.3606 26.37V34.4063L10.3382 34.7365L8.03599 34.7851C7.988 36.0847 7.988 37.3857 8.03599 38.6853H18.2894L18.2899 34.7845ZM44.0968 40.4563C43.1215 41.8997 41.889 43.294 40.5434 44.3786C40.4943 44.4525 40.3551 44.4245 40.3108 44.3565C39.7277 43.9793 39.1002 43.6707 38.5411 43.294C39.2859 42.3729 40.0072 41.4513 40.5653 40.4309H39.8419C39.264 41.3088 38.6579 42.2299 37.8912 43.0075C36.8674 42.5828 35.938 42.2051 34.8917 41.9191L34.7754 41.829C34.9381 41.3515 35.2396 40.903 35.3319 40.4298H34.7045L34.0771 41.7071C32.7069 41.4 31.1949 41.2327 29.7997 41.1394C29.7293 40.9273 29.8216 40.6198 29.7293 40.4298H29.1248C29.0768 40.7142 29.1947 40.9284 29.0549 41.1642C27.6133 41.2327 26.2187 41.4 24.8715 41.6865L24.2414 40.4298C24.0114 40.4298 23.7527 40.3845 23.5921 40.4552L24.1721 41.85L24.1027 41.9191C23.0607 42.231 22.0361 42.6025 21.0338 43.0318L20.9415 42.9832C20.289 42.2504 19.6611 41.4502 19.1489 40.6462C19.0336 40.242 18.5684 40.4784 18.3123 40.4309C18.8683 41.4723 19.6147 42.3929 20.3574 43.3399C19.7299 43.7192 19.1046 44.1423 18.4505 44.4525C17.0283 43.3319 15.7886 41.9832 14.7782 40.4573C14.4987 40.4109 14.3146 40.432 14.0334 40.4573C15.7076 43.1521 18.3123 45.515 21.0328 46.9099C21.0328 46.9099 21.0328 46.8888 21.0578 46.8888C21.0776 46.8888 21.1241 46.9325 21.0776 46.9573C22.9156 47.8795 24.8699 48.5411 26.9374 48.826C34.076 49.794 40.8892 46.6519 44.8395 40.4573C44.5926 40.431 44.3437 40.4307 44.0968 40.4563ZM34.4035 42.5834L34.4719 42.5359C35.4743 42.7722 36.4256 43.1035 37.3097 43.5514C36.5649 44.4239 35.6115 45.1821 34.729 45.8199C34.1949 46.1496 33.6582 46.5079 33.0996 46.7895L32.1019 46.3406L32.1702 46.1771C33.0089 45.0196 33.7532 43.8363 34.4035 42.5834ZM29.8216 41.8738C31.148 41.8997 32.4738 42.0411 33.7041 42.347L33.7286 42.4188C33.0788 43.6939 32.2631 44.9258 31.3811 46.0816C30.9837 46.1301 30.6134 45.9666 30.2185 45.9413L29.8211 45.8927C29.7757 44.4979 29.7512 43.2687 29.8216 41.8738ZM25.3362 42.299C26.5452 42.0626 27.8001 41.8738 29.1014 41.8738L29.1253 45.8728C28.6361 45.9871 28.1015 45.9871 27.6363 46.1086C26.6829 44.9473 25.8932 43.6939 25.2199 42.3929L25.3362 42.299ZM21.5909 43.5768C22.4999 43.1262 23.4518 42.7933 24.4271 42.5353L24.5215 42.5602C25.1938 43.8606 26.032 45.0887 26.8685 46.3179C26.5457 46.5084 26.1483 46.6223 25.8239 46.8144C24.2515 46.0108 22.8208 44.9397 21.5914 43.6458V43.5768H21.5909ZM24.5914 47.6184C22.6382 47.0966 20.8231 46.1987 19.1494 44.9716V44.8982C19.7075 44.547 20.2677 44.1676 20.8701 43.9048C22.1964 45.256 23.5671 46.2726 25.0551 47.2396C24.9393 47.3815 24.7536 47.5239 24.5914 47.6184ZM33.2165 47.9238C30.7526 48.4709 28.0076 48.492 25.5443 47.8784C25.4974 47.7608 25.6606 47.7355 25.73 47.6664C27.8924 46.223 31.2622 46.223 33.3802 47.7813C33.4491 47.9238 33.2634 47.8784 33.2165 47.9238ZM35.4493 47.2644L34.3566 47.6178C34.1699 47.5234 34.0082 47.3815 33.8439 47.239L33.8909 47.1667C35.3794 46.2721 36.7271 45.1815 38.0065 43.8816C38.6345 44.1412 39.2395 44.4979 39.7991 44.8977C38.4957 45.9666 36.9837 46.6724 35.4493 47.2644ZM14.7328 20.4808C15.3079 19.6574 15.937 18.8759 16.6157 18.1417C17.2181 17.5508 17.7782 16.9837 18.4302 16.5563C19.0352 16.9578 19.7085 17.2924 20.2896 17.669C19.5693 18.5863 18.825 19.5123 18.2904 20.5024C18.4521 20.5764 18.7556 20.5532 18.9888 20.5024C19.5693 19.6294 20.1952 18.7552 20.942 17.9744C21.9393 18.3537 22.9172 18.7541 23.9415 19.039L24.0318 19.1329L23.4528 20.5024C23.7094 20.5532 23.8722 20.5283 24.1262 20.5024C24.3348 20.1031 24.4965 19.6553 24.7291 19.2511C26.0794 19.5597 27.4981 19.7243 28.9397 19.7702C29.1243 19.938 28.9856 20.2909 29.0555 20.5024H29.6829C29.7512 20.2704 29.6594 20.0071 29.7512 19.7966C31.101 19.7232 32.5186 19.5813 33.8251 19.25L33.9383 19.2748L34.5663 20.5013C34.7759 20.5013 35.0545 20.5521 35.2172 20.4528L34.6346 19.0854L34.6831 19.038C35.7507 18.7541 36.7521 18.3289 37.7749 17.9043C38.4978 18.684 39.1701 19.6056 39.7767 20.5008C40.0312 20.5008 40.2873 20.5267 40.4735 20.4522C40.1863 19.9245 39.8514 19.4262 39.4731 18.964C39.166 18.5113 38.8234 18.0856 38.4488 17.6911V17.5686L40.0766 16.6011L40.3113 16.5067C41.7269 17.6152 42.9657 18.9466 43.9826 20.4522C44.2616 20.4522 44.4947 20.5515 44.7279 20.4323C41.6089 15.6142 36.4715 12.5142 30.9174 12.068L30.8929 12.1138L30.8455 12.068C30.2185 11.9983 29.4482 11.9708 28.7749 12.0404C28.5198 12.0199 28.2183 12.0404 27.9153 12.068C22.3362 12.5142 17.1983 15.4707 13.9881 20.5035C14.2207 20.4808 14.4997 20.5769 14.7328 20.4808ZM24.3833 18.4039L24.2905 18.4244C23.336 18.167 22.405 17.8568 21.5215 17.4564L21.5663 17.3145C22.8452 16.0621 24.1935 15.0212 25.6815 14.2193C26.032 14.3613 26.3804 14.4783 26.7288 14.6462L26.6604 14.8307C25.7754 15.9682 25.0796 17.1947 24.3833 18.4039ZM29.0085 19.0401C28.3592 19.1345 27.7776 19.0191 27.1241 18.9667C26.4993 18.8718 25.707 18.8032 25.0796 18.5874C25.754 17.2934 26.5457 16.0383 27.4981 14.883L28.9866 15.0929C29.0555 16.32 29.0085 17.7391 29.0085 19.0401ZM29.7288 19.0655C29.6829 17.8087 29.7069 16.416 29.7288 15.1156C30.1956 15.0465 30.7046 14.9732 31.1709 14.9035C32.0774 16.0837 32.963 17.2934 33.568 18.5874C32.3108 18.9021 31.0222 19.0625 29.7288 19.0655ZM37.148 17.4084C36.2394 17.8082 35.3085 18.187 34.3102 18.4039C33.5899 17.151 32.7997 15.8986 31.9136 14.6882C32.2396 14.5032 32.637 14.3613 32.9849 14.1729C34.499 14.9521 35.962 16.0621 37.1929 17.3344L37.148 17.4084ZM34.1699 13.3668C36.1231 13.888 37.9601 14.7848 39.6343 16.014L39.5879 16.1085L37.9851 17.029H37.8667C36.6364 15.7572 35.1953 14.6462 33.7286 13.7693C33.7751 13.6037 34.0087 13.4844 34.1699 13.3668ZM33.241 13.1293V13.1795C31.2168 14.6882 27.9393 14.8307 25.8014 13.4358C25.6815 13.3414 25.452 13.2955 25.4269 13.1299C27.8929 12.5417 30.7975 12.4942 33.241 13.1293ZM19.0571 16.0621C20.5232 14.9521 22.15 14.1249 23.8711 13.5572C23.9415 13.4833 23.9864 13.4137 24.0782 13.4137V13.4623C24.2639 13.5087 24.4042 13.2945 24.5664 13.4348C24.7067 13.5572 24.871 13.6506 24.9857 13.7682C23.5452 14.6882 22.126 15.7777 20.8236 17.0986C20.1957 16.8666 19.6167 16.5099 19.0566 16.1085L19.0571 16.0621ZM29.0325 34.9691C26.8472 35.5848 24.4741 35.1153 22.8937 33.4107C22.7086 33.1744 22.5912 32.8927 22.4045 32.6574L19.2668 32.6801C19.2172 34.5941 19.1953 36.7929 19.2668 38.6848L22.7529 38.6616L22.7993 37.5262C23.1962 37.7151 23.5921 37.9509 23.9864 38.163C26.4044 39.2044 29.517 39.4407 31.9126 38.163C33.6577 37.1728 34.5882 35.2588 34.3316 33.1981C34.077 31.1913 32.2161 29.3702 30.3343 28.8754L24.7061 27.1956L24.2899 26.9819C24.1037 26.8179 23.9869 26.6064 24.0323 26.3441C24.4741 25.566 25.4984 25.8024 26.2656 25.8234C27.8929 26.0603 29.5666 26.6274 30.5205 28.1647C31.5423 28.1647 32.7278 28.1852 33.8429 28.1399C33.8903 26.2022 33.8246 24.5014 33.797 22.5389C32.7507 22.5141 31.4713 22.5141 30.4266 22.5637C30.3797 22.8448 30.4715 23.2452 30.3552 23.5301L29.2865 22.9387C26.7277 21.8282 23.1467 21.7122 20.8226 23.4378C19.3106 24.5705 18.8469 26.6053 19.2423 28.4011C19.5432 30.1003 21.1241 31.3543 22.6361 31.9435C24.7051 32.699 26.8665 33.2461 28.9626 33.9778C29.1702 34.0739 29.4487 34.2881 29.4039 34.5477C29.4049 34.7576 29.1942 34.879 29.0325 34.9691Z" fill="white"/>
</g>
<defs>
<clipPath id="clip0_2118_15517">
<rect width="44" height="37" fill="white" transform="translate(8 12)"/>
</clipPath>
</defs>
</svg>
