<svg width="432" height="78" viewBox="0 0 432 78" fill="none" xmlns="http://www.w3.org/2000/svg">
<path d="M26.5982 58.2362C30.4138 58.2362 33.507 55.1182 33.507 51.2719C33.507 47.4256 30.4138 44.3076 26.5982 44.3076C22.7826 44.3076 19.6895 47.4256 19.6895 51.2719C19.6895 55.1182 22.7826 58.2362 26.5982 58.2362Z" fill="#FF5B35"/>
<path d="M311.319 12.3517C311.154 12.6767 310.825 12.8392 310.496 13.1642C310.496 13.1642 310.331 13.1642 310.331 13.3267C310.002 13.6517 309.509 13.8142 309.015 13.9767C308.85 14.3017 308.686 14.4642 308.521 14.6267C308.357 14.7892 308.028 14.9517 307.863 15.1142C307.863 15.7642 307.863 16.4142 307.699 17.2267C307.534 18.0392 307.205 18.8517 306.711 19.5017C306.382 19.9892 306.053 20.3142 305.724 20.4767C305.559 20.6392 305.23 20.6392 305.066 20.6392C304.901 20.6392 304.572 20.4767 304.408 20.3142C304.243 20.1517 304.079 19.6642 304.079 19.1767C303.914 18.0392 303.585 17.0642 303.091 16.4142C302.598 15.7642 301.939 15.2767 300.952 15.1142C300.623 15.1142 300.294 15.1142 300.129 15.1142C298.813 15.1142 297.497 14.6267 296.509 13.8142L296.345 13.6517C296.18 13.6517 295.851 13.8142 295.687 13.8142C295.358 13.8142 295.029 13.8142 294.864 13.8142C293.383 13.8142 291.902 13.3267 290.915 12.5142C289.928 11.7017 289.27 10.4017 289.27 9.10166C289.27 8.12666 289.599 7.15166 290.257 6.50166C290.915 5.68916 291.738 5.20166 292.725 4.87666C292.89 4.38916 293.219 3.90166 293.712 3.41416C294.535 2.60166 295.687 2.11416 296.839 2.11416C297.168 2.11416 297.497 2.11416 297.99 2.27666C298.32 1.95166 298.813 1.62666 299.471 1.46416C300.129 1.30166 300.788 1.13916 301.446 1.13916C302.269 1.13916 302.927 1.30166 303.585 1.46416C304.079 1.62666 304.408 1.78916 304.737 2.11416C305.23 1.95166 305.889 2.11416 306.547 2.11416C307.205 2.27666 307.863 2.43916 308.357 2.92666C309.179 3.41416 309.838 4.06416 310.331 4.71416C310.825 5.36416 310.989 6.17666 310.989 6.82666C311.154 6.98916 311.319 7.31416 311.483 7.47666C311.977 8.12666 312.306 9.10166 312.306 10.0767C312.306 10.7267 311.977 11.5392 311.319 12.3517Z" fill="#FF5B35"/>
<path fillRule="evenodd" clipRule="evenodd" d="M0.821289 5.03555C0.821289 2.76055 2.79583 0.810547 5.09947 0.810547C7.56764 0.810547 9.37764 2.76055 9.37764 5.03555V47.4481C9.37764 49.7231 7.4031 51.6731 5.09947 51.6731C2.79583 51.6731 0.821289 49.7231 0.821289 47.4481V5.03555ZM16.1248 28.4296C19.9093 26.8046 24.1875 25.9921 28.6302 26.3171C41.4647 27.2921 51.6665 37.8546 52.3247 50.5296C53.1474 65.1546 41.3002 77.1796 26.6556 77.1796C16.1248 77.1796 7.23933 71.0046 3.1257 62.2296C1.80934 59.4671 3.94843 56.2171 7.07478 56.2171C8.72023 56.2171 10.2011 57.1921 10.8593 58.6546C13.492 64.5046 19.4157 68.7296 26.4911 68.7296C37.1865 68.7296 45.4138 59.3046 43.4392 48.5796C42.2874 42.0796 37.022 36.7171 30.4402 35.2546C26.4911 34.4421 22.8711 34.9296 19.7448 36.2296C16.9475 37.3671 13.6566 35.4171 13.6566 32.3296C13.6566 30.7046 14.6439 29.0796 16.1248 28.4296Z" fill="white"/>
<path d="M28.6302 26.3171L28.6424 26.1564L28.6419 26.1564L28.6302 26.3171ZM16.1248 28.4296L16.0612 28.2815L16.06 28.282L16.1248 28.4296ZM52.3247 50.5296L52.1637 50.538L52.1637 50.5387L52.3247 50.5296ZM3.1257 62.2296L3.27166 62.1612L3.27122 62.1603L3.1257 62.2296ZM10.8593 58.6546L11.0063 58.5885V58.5885L10.8593 58.6546ZM43.4392 48.5796L43.2805 48.6077L43.2807 48.6088L43.4392 48.5796ZM30.4402 35.2546L30.4752 35.0973L30.4727 35.0967L30.4402 35.2546ZM19.7448 36.2296L19.8055 36.3789L19.8066 36.3785L19.7448 36.2296ZM5.09947 0.810547V0.649353C2.70871 0.649353 0.660095 2.66963 0.660095 5.03555H0.821289H0.982483C0.982483 2.85147 2.88295 0.971741 5.09947 0.971741V0.810547ZM9.37764 5.03555H9.53884C9.53884 2.67368 7.65881 0.649353 5.09947 0.649353V0.810547V0.971741C7.47647 0.971741 9.21645 2.84741 9.21645 5.03555H9.37764ZM9.37764 47.4481H9.53884V5.03555H9.37764H9.21645V47.4481H9.37764ZM5.09947 51.6731V51.8343C7.49022 51.8343 9.53884 49.814 9.53884 47.4481H9.37764H9.21645C9.21645 49.6321 7.31598 51.5119 5.09947 51.5119V51.6731ZM0.821289 47.4481H0.660095C0.660095 49.814 2.70871 51.8343 5.09947 51.8343V51.6731V51.5119C2.88295 51.5119 0.982483 49.6321 0.982483 47.4481H0.821289ZM0.821289 5.03555H0.660095V47.4481H0.821289H0.982483V5.03555H0.821289ZM28.6302 26.3171L28.6419 26.1564C24.1721 25.8294 19.8682 26.6469 16.0612 28.2815L16.1248 28.4296L16.1884 28.5777C19.9504 26.9624 24.2028 26.1549 28.6184 26.4779L28.6302 26.3171ZM52.3247 50.5296L52.4857 50.5213C51.8233 37.7655 41.558 27.1376 28.6424 26.1564L28.6302 26.3171L28.618 26.4779C41.3714 27.4467 51.5097 37.9437 52.1637 50.538L52.3247 50.5296ZM26.6556 77.1796V77.3408C41.3887 77.3408 53.3138 65.242 52.4856 50.5206L52.3247 50.5296L52.1637 50.5387C52.981 65.0672 41.2116 77.0184 26.6556 77.0184V77.1796ZM3.1257 62.2296L2.97975 62.298C7.11868 71.127 16.0594 77.3408 26.6556 77.3408V77.1796V77.0184C16.1902 77.0184 7.35998 70.8822 3.27165 62.1612L3.1257 62.2296ZM7.07478 56.2171V56.0559C3.83739 56.0559 1.60968 59.4228 2.98018 62.299L3.1257 62.2296L3.27122 62.1603C2.009 59.5114 4.05946 56.3783 7.07478 56.3783V56.2171ZM10.8593 58.6546L11.0063 58.5885C10.3222 57.0684 8.78394 56.0559 7.07478 56.0559V56.2171V56.3783C8.65653 56.3783 10.0801 57.3159 10.7123 58.7208L10.8593 58.6546ZM26.4911 68.7296V68.5684C19.4821 68.5684 13.6143 64.3834 11.0063 58.5885L10.8593 58.6546L10.7123 58.7208C13.3698 64.6258 19.3492 68.8908 26.4911 68.8908V68.7296ZM43.4392 48.5796L43.2807 48.6088C45.2364 59.2312 37.0895 68.5684 26.4911 68.5684V68.7296V68.8908C37.2836 68.8908 45.5912 59.378 43.5978 48.5504L43.4392 48.5796ZM30.4402 35.2546L30.4052 35.412C36.926 36.8609 42.1405 42.1744 43.2805 48.6077L43.4392 48.5796L43.598 48.5515C42.4343 41.9848 37.1179 36.5733 30.4751 35.0973L30.4402 35.2546ZM19.7448 36.2296L19.8066 36.3785C22.9045 35.0903 26.4916 34.6068 30.4077 35.4125L30.4402 35.2546L30.4727 35.0967C26.4906 34.2774 22.8378 34.7689 19.6829 36.0808L19.7448 36.2296ZM13.6566 32.3296H13.4954C13.4954 35.5447 16.9147 37.5545 19.8055 36.3789L19.7448 36.2296L19.684 36.0803C16.9803 37.1798 13.8178 35.2895 13.8178 32.3296H13.6566ZM16.1248 28.4296L16.06 28.282C14.5159 28.9597 13.4954 30.6458 13.4954 32.3296H13.6566H13.8178C13.8178 30.7635 14.7718 29.1995 16.1895 28.5772L16.1248 28.4296Z" fill="white"/>
<path d="M146.937 26.3148C131.964 26.3148 122.585 37.8523 113.535 49.0648C105.307 59.1398 97.5737 68.7273 86.8783 68.7273C76.6765 68.7273 68.6138 60.1148 69.7656 49.8773C70.5883 42.0773 77.1701 35.7398 85.0683 34.9273C91.321 34.2773 97.0801 37.0398 100.536 41.5898C101.358 42.5648 102.51 43.2148 103.826 43.2148C107.446 43.2148 109.421 39.1523 107.282 36.2273C101.358 28.4273 90.9919 24.2023 79.9674 26.9648C70.9174 29.2398 63.842 36.3898 61.7029 45.3273C57.7538 62.0648 70.4238 77.0148 86.7137 77.0148C101.687 77.0148 111.066 65.4773 120.116 54.2648C128.344 44.1898 136.077 34.6023 146.773 34.6023C156.975 34.6023 165.037 43.2148 163.885 53.4523C163.063 61.2523 156.481 67.5898 148.583 68.4023C142.33 69.0523 136.571 66.2898 133.115 61.7398C132.293 60.7648 131.141 60.1148 129.825 60.1148C126.205 60.1148 124.23 64.1773 126.369 67.1023C131.799 74.0898 140.685 78.1523 150.557 76.8523C162.075 75.3898 171.29 65.9648 172.606 54.5898C174.252 39.3148 162.075 26.3148 146.937 26.3148Z" fill="white" stroke="white" strokeWidth="0.322388" strokeMiterlimit="10"/>
<path d="M185.44 0.805176C187.744 0.805176 189.718 2.75518 189.718 5.03018V72.9552C189.718 75.2302 187.744 77.1802 185.44 77.1802C183.137 77.1802 181.162 75.2302 181.162 72.9552V5.03018C181.162 2.75518 183.137 0.805176 185.44 0.805176Z" fill="white" stroke="white" strokeWidth="0.322388" strokeMiterlimit="10"/>
<path d="M224.109 26.3228C209.794 26.3228 198.275 37.6978 198.275 51.8353V73.1227C198.275 75.3977 200.25 77.3477 202.554 77.3477C204.857 77.3477 206.832 75.3977 206.832 73.1227V51.6727C206.832 42.2477 214.565 34.7728 223.944 34.7728C233.488 34.7728 241.057 42.4102 241.057 51.6727V72.9603C241.057 75.2352 243.032 77.1852 245.335 77.1852C247.639 77.1852 249.613 75.2352 249.613 72.9603V51.6727C249.943 37.6977 238.424 26.3228 224.109 26.3228Z" fill="white"/>
<path d="M267.055 26.3228C252.739 26.3228 241.221 37.6978 241.221 51.8353V73.1227C241.221 75.3977 243.196 77.3477 245.499 77.3477C247.803 77.3477 249.778 75.3977 249.778 73.1227V51.6727C249.778 42.2477 257.511 34.7728 266.89 34.7728C276.434 34.7728 284.003 42.4102 284.003 51.6727V72.9603C284.003 75.2352 285.977 77.1852 288.281 77.1852C290.585 77.1852 292.559 75.2352 292.559 72.9603V51.6727C292.888 37.6977 281.37 26.3228 267.055 26.3228Z" fill="white"/>
<path d="M224.109 26.3228C209.794 26.3228 198.275 37.6978 198.275 51.8353V73.1227C198.275 75.3977 200.25 77.3477 202.554 77.3477C204.857 77.3477 206.832 75.3977 206.832 73.1227V51.6727C206.832 42.2477 214.565 34.7728 223.944 34.7728C233.488 34.7728 241.057 42.4102 241.057 51.6727V72.9603C241.057 75.2352 243.032 77.1852 245.335 77.1852C247.639 77.1852 249.613 75.2352 249.613 72.9603V51.6727C249.943 37.6977 238.424 26.3228 224.109 26.3228Z" stroke="white" strokeWidth="0.322388" strokeMiterlimit="10"/>
<path d="M267.055 26.3228C252.739 26.3228 241.221 37.6978 241.221 51.8353V73.1227C241.221 75.3977 243.196 77.3477 245.499 77.3477C247.803 77.3477 249.778 75.3977 249.778 73.1227V51.6727C249.778 42.2477 257.511 34.7728 266.89 34.7728C276.434 34.7728 284.003 42.4102 284.003 51.6727V72.9603C284.003 75.2352 285.977 77.1852 288.281 77.1852C290.585 77.1852 292.559 75.2352 292.559 72.9603V51.6727C292.888 37.6977 281.37 26.3228 267.055 26.3228Z" stroke="white" strokeWidth="0.322388" strokeMiterlimit="10"/>
<path d="M305.723 26.3228C308.027 26.3228 310.002 28.2728 310.002 30.5478V72.9603C310.002 75.2353 308.027 77.1853 305.723 77.1853C303.42 77.1853 301.445 75.2353 301.445 72.9603V30.5478C301.445 28.1103 303.42 26.3228 305.723 26.3228Z" fill="white" stroke="white" strokeWidth="0.322388" strokeMiterlimit="10"/>
<path d="M344.391 26.3228C330.076 26.3228 318.558 37.6978 318.558 51.8353V73.1227C318.558 75.3978 320.532 77.3477 322.836 77.3477C325.139 77.3477 327.114 75.3978 327.114 73.1227V51.6728C327.114 42.2478 334.848 34.7728 344.227 34.7728C353.77 34.7728 361.339 42.4102 361.339 51.6728V72.9603C361.339 75.2353 363.314 77.1852 365.617 77.1852C367.921 77.1852 369.896 75.2353 369.896 72.9603V51.6728C370.225 37.6978 358.707 26.3228 344.391 26.3228Z" fill="white" stroke="white" strokeWidth="0.322388" strokeMiterlimit="10"/>
<path d="M426.006 51.6623C428.309 51.6623 430.284 49.7123 430.284 47.4373V5.02481C430.284 2.74981 428.309 0.799805 426.006 0.799805C423.702 0.799805 421.728 2.74981 421.728 5.02481V47.4373C421.728 49.8748 423.702 51.6623 426.006 51.6623Z" fill="white" stroke="white" strokeWidth="0.322388" strokeMiterlimit="10"/>
<path d="M402.64 26.3128C407.083 25.9878 411.361 26.8003 415.146 28.4253C416.627 29.0753 417.614 30.7003 417.614 32.3253C417.614 35.4128 414.323 37.3628 411.526 36.2253C408.399 34.9253 404.779 34.4378 400.83 35.2503C394.248 36.7128 388.983 42.0753 387.831 48.5753C385.857 59.3003 394.084 68.7253 404.779 68.7253C411.855 68.7253 417.778 64.5003 420.411 58.6503C421.069 57.1878 422.55 56.2128 424.196 56.2128C427.322 56.2128 429.461 59.4628 428.145 62.2253C424.031 71.0003 415.146 77.1753 404.615 77.1753C389.97 77.1753 378.123 65.1503 378.946 50.5253C379.439 37.8503 389.806 27.2878 402.64 26.3128Z" fill="white" stroke="white" strokeWidth="0.322388" strokeMiterlimit="10"/>
</svg>
