<svg width="60" height="60" viewBox="0 0 60 60" fill="none" xmlns="http://www.w3.org/2000/svg">
<g clip-path="url(#clip0_2118_15518)">
<path fillRule="evenodd" clipRule="evenodd" d="M39.5057 35.5061C39.3954 36.4624 39.0644 37.2348 38.4759 37.7497C37.8874 38.2646 37.115 38.522 36.122 38.522C35.4232 38.522 34.8347 38.3381 34.3198 38.0071C33.8049 37.6761 33.4003 37.198 33.1061 36.536C32.8119 35.9107 32.6647 35.1751 32.6647 34.366V33.1523C32.6647 32.3431 32.8119 31.6075 33.1061 30.9823C33.4003 30.357 33.8049 29.8421 34.3566 29.5111C34.9083 29.1801 35.5335 28.9962 36.2323 28.9962C37.2254 28.9962 37.9978 29.2537 38.5862 29.8053C39.1747 30.3203 39.5057 31.0926 39.5793 32.0121H38.7333C38.5494 30.4306 37.7035 29.6582 36.1956 29.6582C35.3496 29.6582 34.6876 29.9892 34.2095 30.6145C33.6946 31.2397 33.4739 32.1224 33.4739 33.2258V34.366C33.4739 35.4326 33.7313 36.2785 34.2095 36.9038C34.6876 37.529 35.3496 37.86 36.1588 37.86C36.9679 37.86 37.5932 37.6761 37.9977 37.2715C38.4023 36.867 38.6598 36.2785 38.7701 35.5061H39.5057ZM31.12 34.2556C31.12 35.1016 30.9729 35.8372 30.6787 36.4992C30.3844 37.1244 29.9799 37.6393 29.4282 37.9704C28.8765 38.3014 28.2512 38.4853 27.5524 38.4853C26.4858 38.4853 25.6031 38.1175 24.9411 37.3451C24.2791 36.5727 23.948 35.5429 23.948 34.2189V33.2626C23.948 32.4167 24.0952 31.6811 24.3894 31.0191C24.6836 30.357 25.125 29.8789 25.6399 29.5111C26.1916 29.1801 26.8168 28.9962 27.5156 28.9962C28.2144 28.9962 28.8397 29.1801 29.3914 29.5111C29.9431 29.8421 30.3476 30.3203 30.6419 30.9455C30.9361 31.5708 31.0832 32.3063 31.12 33.1155V34.2556ZM30.3476 33.2626C30.3476 32.1592 30.0902 31.2765 29.5753 30.6513C29.0604 30.026 28.3983 29.695 27.5156 29.695C26.6697 29.695 25.9709 30.026 25.456 30.6513C24.9411 31.2765 24.6836 32.1592 24.6836 33.2994V34.2556C24.6836 35.359 24.9411 36.205 25.456 36.867C25.9709 37.4922 26.6697 37.8232 27.5156 37.8232C28.3983 37.8232 29.0972 37.4922 29.5753 36.867C30.0534 36.2417 30.3109 35.359 30.3109 34.2189L30.3476 33.2626ZM21.962 36.0946C21.962 35.5797 21.7781 35.1751 21.4103 34.8809C21.0425 34.5867 20.3805 34.2924 19.4242 34.035C18.4679 33.7775 17.7691 33.4833 17.3278 33.1523C16.7025 32.7109 16.3715 32.1224 16.3715 31.3869C16.3715 30.688 16.6657 30.0996 17.2542 29.6582C17.8427 29.2169 18.5783 28.9962 19.4977 28.9962C20.123 28.9962 20.6747 29.1065 21.1528 29.364C21.6309 29.5847 21.9987 29.9157 22.293 30.357C22.5504 30.7616 22.6975 31.2397 22.6975 31.7546H21.9252C21.9252 31.1294 21.7045 30.6145 21.2632 30.2467C20.8218 29.8789 20.2701 29.6582 19.5345 29.6582C18.8357 29.6582 18.284 29.8053 17.8427 30.1364C17.4381 30.4674 17.2174 30.8719 17.2174 31.3869C17.2174 31.865 17.4013 32.2328 17.7691 32.527C18.1369 32.8213 18.7622 33.0787 19.5713 33.2994C20.4172 33.5201 21.0425 33.7775 21.4471 33.9982C21.8884 34.2556 22.1826 34.5499 22.4033 34.8809C22.624 35.2119 22.7343 35.6165 22.7343 36.0946C22.7343 36.8302 22.4401 37.4187 21.8516 37.86C21.2632 38.3014 20.4908 38.522 19.5713 38.522C18.9093 38.522 18.3208 38.4117 17.7691 38.191C17.2174 37.9704 16.8129 37.6393 16.5186 37.198C16.2244 36.7934 16.1141 36.3153 16.1141 35.7636H16.8864C16.8864 36.4256 17.1439 36.9405 17.622 37.3083C18.1001 37.6761 18.7622 37.86 19.5713 37.86C20.3069 37.86 20.8586 37.7129 21.2999 37.3819C21.7413 37.0509 21.962 36.6463 21.962 36.0946ZM43.294 20.7944H39.1011L38.1449 23.4057H37.3357L40.8298 14.1741H41.5653L45.0594 23.4057H44.2502L43.294 20.7944ZM39.3586 20.1324H43.0733L41.2343 15.0936L39.3586 20.1324ZM32.1131 19.6175V23.369H31.3407V14.1741H34.4669C35.4232 14.1741 36.1956 14.4316 36.7473 14.9097C37.2989 15.3878 37.5932 16.0867 37.5932 16.9326C37.5932 17.8153 37.3357 18.4773 36.784 18.9554C36.2323 19.4336 35.46 19.6543 34.4669 19.6543H32.1131V19.6175ZM32.1131 18.9554H34.4669C35.2393 18.9554 35.791 18.7715 36.1956 18.4038C36.6001 18.036 36.784 17.5578 36.784 16.8958C36.784 16.2706 36.6001 15.7556 36.1956 15.3511C35.791 14.9833 35.2393 14.7626 34.5037 14.7626H32.1131V18.9554ZM29.5753 20.5002C29.4649 21.4564 29.1339 22.2288 28.5455 22.7437C27.957 23.2586 27.1846 23.5161 26.1916 23.5161C25.4928 23.5161 24.9043 23.3322 24.3894 23.0012C23.8745 22.6702 23.4699 22.192 23.1757 21.53C22.8814 20.9047 22.7343 20.1692 22.7343 19.36V18.1463C22.7343 17.3372 22.8814 16.6016 23.1757 15.9763C23.4699 15.3511 23.8745 14.8362 24.4262 14.5051C24.9779 14.1741 25.6031 13.9902 26.3019 13.9902C27.295 13.9902 28.0673 14.2477 28.6558 14.7994C29.2443 15.3143 29.5753 16.0867 29.6488 17.0061H28.8765C28.6926 15.4246 27.8467 14.6523 26.3387 14.6523C25.4928 14.6523 24.8307 14.9833 24.3526 15.6085C23.8377 16.2338 23.617 17.1165 23.617 18.2199V19.36C23.617 20.4266 23.8745 21.2725 24.3526 21.8978C24.8307 22.523 25.4928 22.8541 26.3019 22.8541C27.1111 22.8541 27.7363 22.6702 28.1409 22.2656C28.5455 21.861 28.8029 21.2725 28.9133 20.5002H29.5753ZM19.8655 23.4057H20.6379V14.1741H19.8655V23.4057ZM16.7025 20.7944H12.5097L11.5534 23.4057H10.7443L14.2383 14.1741H14.9739L18.4679 23.4057H17.6588L16.7025 20.7944ZM12.7671 20.1324H16.4818L14.6429 15.0936L12.7671 20.1324ZM53.0773 19.4336C53.0037 19.4336 52.9669 19.4704 52.9669 19.5439C52.9669 19.6175 52.9302 19.691 52.9669 19.8014C52.9669 19.9117 52.9669 20.022 52.9669 20.0956C52.9302 20.2795 52.8566 20.3898 52.7095 20.4266C52.5991 20.4634 52.452 20.4266 52.3417 20.3531C52.2313 20.2795 52.1578 20.1324 52.0842 19.9853C52.0475 19.8014 52.0475 19.6543 52.0842 19.5071C52.121 19.36 52.2313 19.2865 52.3785 19.2497L52.4888 19.5807C52.4152 19.5807 52.3785 19.6543 52.3417 19.691C52.3049 19.7646 52.3049 19.8014 52.3417 19.9117C52.3785 19.9853 52.4152 20.022 52.452 20.0588C52.4888 20.0956 52.5624 20.0956 52.5991 20.0956C52.6359 20.0956 52.6727 20.0588 52.7095 19.9853C52.7095 19.9485 52.7095 19.8381 52.7095 19.691C52.7095 19.5439 52.7095 19.4336 52.7095 19.36C52.7095 19.2865 52.7463 19.2129 52.8198 19.1393C52.8566 19.0658 52.9302 19.029 53.0037 19.029C53.1508 18.9922 53.2612 19.029 53.3715 19.1026C53.4818 19.1761 53.5554 19.3232 53.629 19.5071C53.6657 19.6175 53.6657 19.7278 53.6657 19.8381C53.6657 19.9485 53.629 20.022 53.5554 20.0956C53.4818 20.1692 53.4083 20.2059 53.3347 20.2427L53.2244 19.9117C53.2979 19.8749 53.3347 19.8381 53.3715 19.7646C53.4083 19.691 53.4083 19.6175 53.3715 19.5439C53.3347 19.4704 53.298 19.3968 53.2612 19.36C53.1876 19.3968 53.1141 19.3968 53.0773 19.4336ZM52.5624 21.7875L52.7095 21.7507C52.5624 21.6771 52.452 21.53 52.4152 21.3461C52.3417 21.0519 52.4888 20.8312 52.8566 20.7576L53.8496 20.537L53.9232 20.868L52.9669 21.0886C52.8566 21.1254 52.8198 21.1622 52.783 21.199C52.7463 21.2358 52.7463 21.3093 52.7463 21.4197C52.783 21.5668 52.8566 21.6403 53.0037 21.6771L54.0703 21.4197L54.1439 21.7507L52.6359 22.0817L52.5624 21.7875ZM53.6657 23.6632C53.5186 23.7 53.3715 23.6632 53.2612 23.6264C53.1508 23.5896 53.0405 23.5161 52.9302 23.4425C52.8566 23.3322 52.783 23.2218 52.783 23.0747C52.7463 22.8541 52.783 22.7069 52.8934 22.5598C53.0037 22.4127 53.1508 22.3024 53.3715 22.2656H53.4451C53.5922 22.2288 53.7393 22.2288 53.8496 22.3024C53.96 22.3391 54.0703 22.4127 54.1807 22.4863C54.2542 22.5966 54.3278 22.7069 54.3278 22.8541C54.3645 23.0747 54.3278 23.2586 54.2174 23.4057C54.0703 23.5161 53.9232 23.6264 53.6657 23.6632ZM53.629 23.3322C53.7761 23.2954 53.8864 23.2586 53.96 23.1851C54.0335 23.1115 54.0703 23.0012 54.0335 22.8908C54.0335 22.7805 53.96 22.7069 53.8496 22.6334C53.7393 22.5966 53.629 22.5598 53.4451 22.5966C53.298 22.6334 53.1876 22.6702 53.1141 22.7437C53.0405 22.8173 53.0037 22.9276 53.0405 23.0379C53.0405 23.1483 53.1141 23.2218 53.2244 23.2954C53.3347 23.3322 53.4451 23.3322 53.629 23.3322ZM52.5991 24.5091C52.5624 24.5091 52.4888 24.5091 52.452 24.4723C52.4152 24.4356 52.3785 24.3988 52.3785 24.3252C52.3785 24.2517 52.3785 24.2149 52.4152 24.1781C52.452 24.1413 52.4888 24.1046 52.5256 24.1046C52.5624 24.1046 52.6359 24.1045 52.6727 24.1413C52.7095 24.1781 52.7463 24.2149 52.7463 24.2884C52.7463 24.362 52.7463 24.3988 52.7095 24.4356C52.6727 24.4723 52.6359 24.4723 52.5991 24.5091ZM54.4749 23.9207L54.5117 24.2517L53.0037 24.4356L52.9669 24.1046L54.4749 23.9207ZM52.6727 24.9873L53.0405 24.9505L53.0037 24.693L53.2612 24.6562L53.298 24.9137L54.1439 24.8401C54.2174 24.8401 54.2542 24.8034 54.2542 24.8034C54.291 24.7666 54.291 24.7298 54.291 24.693C54.291 24.6562 54.291 24.6195 54.2542 24.5827L54.5117 24.5459C54.5484 24.6195 54.5484 24.693 54.5484 24.7666C54.5852 25.024 54.4381 25.1712 54.1439 25.2079L53.298 25.2815L53.3347 25.5389L53.0773 25.5757L53.0405 25.3183L52.6727 25.355V24.9873ZM54.6588 25.9803C54.622 26.0171 54.5484 26.0171 54.5117 26.0171C54.622 26.1274 54.6956 26.2377 54.6956 26.4216C54.6956 26.5688 54.6588 26.7159 54.5852 26.7894C54.5117 26.8998 54.4013 26.9366 54.2542 26.9366C54.1071 26.9366 53.96 26.8998 53.8864 26.7527C53.8129 26.6423 53.7393 26.4584 53.7393 26.2377V26.0171H53.629C53.5554 26.0171 53.4818 26.0539 53.4451 26.0906C53.4083 26.1274 53.3715 26.201 53.3715 26.3113C53.3715 26.3849 53.4083 26.4584 53.4451 26.4952C53.4818 26.532 53.5186 26.5688 53.5922 26.5688V26.8998C53.5186 26.8998 53.4083 26.863 53.3715 26.8262C53.298 26.7527 53.2244 26.6791 53.1876 26.6055C53.1508 26.4952 53.1141 26.3849 53.1141 26.2745C53.1141 26.0906 53.1508 25.9435 53.2244 25.8332C53.2979 25.7228 53.4451 25.6493 53.5922 25.6493L54.291 25.6125C54.4381 25.6125 54.5484 25.5757 54.622 25.5389H54.6588V25.9803ZM54.4013 26.3849C54.4013 26.3113 54.3645 26.2378 54.3278 26.201C54.291 26.1274 54.2542 26.0906 54.1807 26.0539H53.8864V26.2377C53.8864 26.3481 53.9232 26.4584 53.96 26.532C53.9968 26.6055 54.0703 26.6055 54.1439 26.6055C54.2174 26.6055 54.2542 26.5688 54.291 26.532C54.4013 26.4952 54.4013 26.4584 54.4013 26.3849ZM54.4013 28.0399V27.2308H54.6588L54.622 28.4813H54.4013L53.3715 27.6721V28.4445H53.0773L53.1141 27.2308H53.3347L54.4013 28.0399ZM52.6727 29.1065C52.6359 29.1065 52.5624 29.0698 52.5624 29.033C52.5256 28.9962 52.5256 28.9594 52.5256 28.8859C52.5256 28.8123 52.5624 28.7755 52.5991 28.7387C52.6359 28.702 52.6727 28.702 52.7463 28.702C52.783 28.702 52.8566 28.7387 52.8566 28.7755C52.8934 28.8123 52.8934 28.8491 52.8934 28.9226C52.8934 28.9962 52.8566 29.033 52.8198 29.0698C52.783 29.0698 52.7463 29.1065 52.6727 29.1065ZM54.622 28.8491L54.5852 29.1801L53.0773 29.1065L53.1141 28.7755L54.622 28.8491ZM52.9669 30.3938H53.1508C53.0405 30.2835 52.9669 30.0996 53.0037 29.9157C53.0405 29.5847 53.2244 29.4743 53.5922 29.4743L54.5852 29.5847L54.5484 29.9157L53.5554 29.8053C53.4451 29.8053 53.3715 29.8053 53.3347 29.8421C53.2979 29.8789 53.2612 29.9525 53.2612 30.026C53.2612 30.1731 53.2979 30.2835 53.4083 30.357L54.4749 30.4674L54.4381 30.7984L52.9302 30.6513L52.9669 30.3938ZM54.3645 31.6075C54.3278 31.6075 54.291 31.6075 54.2174 31.6075C54.3278 31.7179 54.3278 31.865 54.3278 32.0489C54.291 32.196 54.2542 32.3063 54.1439 32.3799C54.0335 32.4535 53.9232 32.4902 53.8129 32.4535C53.6657 32.4167 53.5554 32.3431 53.4818 32.196C53.4083 32.0489 53.4083 31.9018 53.4451 31.6443L53.4818 31.4236H53.3715C53.298 31.4236 53.2244 31.4236 53.1876 31.4604C53.1508 31.4972 53.1141 31.5708 53.0773 31.6443C53.0773 31.7179 53.0773 31.7914 53.1141 31.8282C53.1508 31.9018 53.1876 31.9018 53.2612 31.9385L53.1876 32.2696C53.1141 32.2696 53.0405 32.196 52.9669 32.1592C52.8934 32.0857 52.8566 32.0121 52.8198 31.9018C52.783 31.7914 52.783 31.6811 52.8198 31.5708C52.8566 31.3869 52.9302 31.2765 53.0405 31.1662C53.1508 31.0926 53.298 31.0558 53.4451 31.0558L54.1439 31.1662C54.291 31.203 54.4013 31.203 54.4749 31.1662H54.5117L54.3645 31.6075ZM54.0335 31.9385C54.0335 31.865 54.0335 31.7914 54.0335 31.7546C53.9968 31.6811 53.96 31.6443 53.9232 31.6075L53.629 31.5708L53.5922 31.7546C53.5554 31.865 53.5922 31.9753 53.5922 32.0489C53.629 32.1224 53.6657 32.1592 53.7761 32.1592C53.8496 32.1592 53.8864 32.1592 53.96 32.1224C53.9968 32.0489 54.0335 32.0121 54.0335 31.9385ZM53.0405 34.0717C52.8198 34.035 52.6359 33.9246 52.5256 33.7775C52.4152 33.6304 52.3785 33.4833 52.4152 33.2994C52.452 33.1155 52.5624 33.0051 52.6727 32.9316L52.5256 32.8948L52.5991 32.6006L54.0335 32.9316C54.2174 32.9684 54.3645 33.0787 54.4381 33.2258C54.5117 33.3729 54.5484 33.5568 54.4749 33.7407C54.4381 33.8511 54.4013 33.9614 54.3278 34.035C54.2542 34.1453 54.1807 34.1821 54.1071 34.2189L53.96 33.9982C54.1071 33.9246 54.1807 33.8143 54.2174 33.6672C54.2542 33.5568 54.2174 33.4465 54.1807 33.3729C54.1439 33.2994 54.0703 33.2258 53.9232 33.2258L53.8129 33.189C53.8864 33.2994 53.9232 33.4465 53.8864 33.6304C53.8496 33.8143 53.7393 33.9246 53.5922 33.9982C53.4818 34.1085 53.2979 34.1085 53.0405 34.0717ZM53.1508 33.7407C53.2979 33.7775 53.4083 33.7775 53.5186 33.7407C53.629 33.704 53.7025 33.6304 53.7025 33.5201C53.7393 33.3729 53.7025 33.2626 53.5922 33.189L52.9302 33.0419C52.8198 33.0787 52.7095 33.1523 52.6727 33.2994C52.6359 33.4097 52.6727 33.5201 52.7463 33.5936C52.8566 33.6304 53.0037 33.704 53.1508 33.7407ZM52.5624 34.1085C52.5256 34.1453 52.5256 34.1821 52.5256 34.2556C52.4888 34.4028 52.5256 34.5131 52.5991 34.6234L53.5922 34.9177L53.4818 35.2487L52.0107 34.8073L52.0842 34.4763L52.2681 34.5131C52.1578 34.4028 52.121 34.2556 52.1578 34.1085C52.1578 34.0717 52.1946 34.035 52.1946 33.9982L52.5624 34.1085ZM52.4888 35.2855C52.6727 35.359 52.8198 35.4326 52.9669 35.5429C53.0773 35.6533 53.1508 35.8004 53.1876 35.9475C53.2244 36.0946 53.2244 36.2417 53.1508 36.4256C53.1141 36.5727 53.0037 36.7199 52.8934 36.7934C52.783 36.9038 52.6359 36.9405 52.452 36.9773C52.2681 36.9773 52.121 36.9773 51.9371 36.9038L51.8268 36.867C51.6429 36.7934 51.4958 36.7199 51.3486 36.5727C51.2383 36.4624 51.1647 36.3153 51.128 36.1682C51.0912 36.0211 51.0912 35.8739 51.1647 35.69C51.2383 35.5429 51.3119 35.3958 51.4222 35.3222C51.5325 35.2119 51.6797 35.1751 51.8636 35.1383C52.0475 35.1383 52.1946 35.1383 52.4152 35.2119L52.4888 35.2855ZM52.2681 35.5797C52.0475 35.5061 51.8636 35.4694 51.7164 35.5429C51.5693 35.5797 51.459 35.69 51.4222 35.8372C51.3854 35.9843 51.3854 36.1314 51.459 36.2417C51.5325 36.3521 51.6797 36.4624 51.9003 36.536L52.0107 36.5727C52.2313 36.6463 52.4152 36.6463 52.5624 36.6095C52.7095 36.5727 52.8198 36.4624 52.8566 36.3153C52.8934 36.1682 52.8934 36.0211 52.8198 35.9107C52.7463 35.8004 52.5991 35.69 52.3785 35.6165L52.2681 35.5797ZM52.1946 38.7795C52.121 38.9634 51.9739 39.1105 51.79 39.1841C51.6061 39.2576 51.4222 39.2209 51.2015 39.1473H51.1647C51.0176 39.0737 50.9073 39.0002 50.8337 38.8898C50.7602 38.7795 50.6866 38.6692 50.6866 38.5588C50.6866 38.4485 50.6866 38.3014 50.7602 38.191C50.8337 38.0071 50.9809 37.8968 51.128 37.8232C51.3119 37.7865 51.4958 37.7865 51.7164 37.8968L51.8268 37.9704L51.3854 38.8898C51.4958 38.9266 51.6061 38.9266 51.7164 38.8898C51.8268 38.8531 51.9003 38.7795 51.9371 38.6692C52.0107 38.522 52.0107 38.3749 51.9371 38.2278L52.1578 38.1175C52.2313 38.2278 52.2313 38.3014 52.2313 38.4117C52.2681 38.5588 52.2313 38.6692 52.1946 38.7795ZM50.9809 38.2646C50.9441 38.3381 50.9441 38.4117 50.9809 38.522C51.0176 38.5956 51.0912 38.6692 51.2015 38.7427L51.4958 38.1543H51.459C51.3486 38.1175 51.2751 38.1175 51.2015 38.1175C51.0912 38.1175 51.0176 38.191 50.9809 38.2646ZM51.2015 40.1036C51.2383 40.03 51.2383 39.9564 51.2383 39.8829C51.2383 39.8093 51.1647 39.7358 51.128 39.699L51.2751 39.4048C51.3486 39.4415 51.4222 39.5151 51.459 39.6254C51.4958 39.699 51.5325 39.8093 51.5325 39.9197C51.5325 40.03 51.4958 40.1403 51.459 40.2139C51.3486 40.3978 51.2015 40.5081 51.0176 40.5449C50.8337 40.5817 50.6498 40.5449 50.4292 40.4346H50.3924C50.1717 40.3242 50.0614 40.1771 49.9878 39.9932C49.9143 39.8093 49.951 39.6254 50.0614 39.4415C50.1349 39.2944 50.282 39.1841 50.4292 39.1105C50.5763 39.0737 50.7234 39.0737 50.8705 39.1473L50.7234 39.4415C50.6498 39.4048 50.5763 39.4048 50.5027 39.4048C50.4292 39.4415 50.3556 39.4783 50.3188 39.5519C50.282 39.6622 50.2453 39.7358 50.3188 39.8461C50.3556 39.9197 50.4659 40.03 50.6131 40.1036L50.6498 40.1403C50.797 40.2139 50.9073 40.2507 51.0176 40.2507C51.0912 40.2875 51.1647 40.2139 51.2015 40.1036ZM49.0683 40.4713C49.0315 40.4346 48.9948 40.3978 48.9948 40.361C48.9948 40.3242 48.9948 40.2507 49.0315 40.2139C49.0683 40.1771 49.1051 40.1403 49.1419 40.1036C49.1787 40.1036 49.2522 40.1036 49.289 40.1403C49.3258 40.1771 49.3626 40.2139 49.3626 40.2507C49.3626 40.2875 49.3626 40.361 49.3258 40.3978C49.289 40.4346 49.2522 40.4714 49.2154 40.5081C49.1787 40.5081 49.1051 40.5081 49.0683 40.4713ZM50.9073 41.1702L50.7234 41.4644L49.3993 40.692L49.5832 40.3978L50.9073 41.1702ZM49.8407 42.0529L49.1051 41.1702L49.289 40.8759L50.282 42.1632L50.1349 42.4207L48.5534 42.0161L48.7373 41.7218L49.8407 42.0529ZM48.7741 42.2735C48.7373 42.3103 48.7005 42.3471 48.7005 42.3839C48.5902 42.4942 48.5902 42.6413 48.6638 42.7517L49.5097 43.3769L49.3258 43.6712L48.0753 42.7884L48.2592 42.531L48.4063 42.6413C48.3327 42.4942 48.3695 42.3471 48.4431 42.2368C48.4799 42.2 48.4799 42.1632 48.5166 42.1632L48.7741 42.2735ZM48.7373 44.4067C48.5902 44.5906 48.4431 44.6642 48.2592 44.701C48.0753 44.7378 47.8914 44.6642 47.7075 44.5171L47.6707 44.4803C47.5604 44.4067 47.4868 44.2964 47.4133 44.1493C47.3397 44.0389 47.3397 43.8918 47.3397 43.7815C47.3397 43.6712 47.4133 43.5608 47.4868 43.4505C47.6339 43.3034 47.7811 43.193 47.9282 43.193C48.1121 43.193 48.296 43.2666 48.4799 43.4137L48.5902 43.4873L47.965 44.2596C48.0753 44.3332 48.1856 44.37 48.296 44.3332C48.4063 44.3332 48.4799 44.2596 48.5534 44.1861C48.6638 44.0757 48.7005 43.9286 48.6638 43.7815L48.9212 43.7447C48.958 43.8551 48.958 43.9654 48.9212 44.0757C48.8476 44.1861 48.8109 44.2964 48.7373 44.4067ZM47.6707 43.5976C47.5972 43.6712 47.5972 43.7447 47.5972 43.8551C47.5972 43.9286 47.6707 44.0389 47.7443 44.1125L48.1488 43.5976H48.1121C48.0017 43.524 47.9282 43.4873 47.8546 43.524C47.8178 43.4873 47.7443 43.524 47.6707 43.5976ZM47.4133 45.0688C47.3397 44.9952 47.2661 44.9952 47.1926 44.9952C47.119 44.9952 47.0087 45.0688 46.8616 45.1423C46.7145 45.2159 46.5673 45.2894 46.457 45.3262C46.2363 45.3998 46.0524 45.363 45.9421 45.2159C45.8317 45.1055 45.7582 44.9584 45.795 44.7745C45.795 44.5906 45.8685 44.4435 46.0156 44.2596C46.126 44.1493 46.2363 44.0757 46.3467 44.0389C46.457 44.0022 46.5673 43.9654 46.6777 44.0022C46.788 44.0389 46.8983 44.0757 46.9719 44.1493L46.7144 44.4067C46.6409 44.3332 46.5673 44.2964 46.457 44.2964C46.3834 44.2964 46.2731 44.37 46.1995 44.4435C46.126 44.5171 46.0892 44.6274 46.0892 44.701C46.0892 44.7745 46.126 44.8481 46.1628 44.9216C46.2363 44.9584 46.2731 44.9952 46.3834 44.9584C46.457 44.9584 46.5673 44.8849 46.7144 44.8113C46.8616 44.7378 46.9719 44.6642 47.0822 44.6274C47.1926 44.5906 47.3029 44.5906 47.3765 44.6274C47.45 44.6642 47.5604 44.701 47.6339 44.7745C47.7443 44.8849 47.8178 45.032 47.8178 45.1791C47.8178 45.363 47.7075 45.5101 47.5604 45.694C47.45 45.8044 47.3397 45.8779 47.2294 45.9515C47.119 45.9883 46.9719 46.025 46.8616 46.025C46.7512 46.025 46.6409 45.9515 46.5306 45.8779L46.788 45.6205C46.8616 45.694 46.9719 45.7308 47.0822 45.7308C47.1926 45.7308 47.2661 45.6572 47.3765 45.5469C47.45 45.4733 47.4868 45.363 47.5236 45.2894C47.4868 45.2159 47.4868 45.1423 47.4133 45.0688ZM45.9053 47.9008L45.795 48.0111L44.1767 46.2089L44.287 46.0986L45.9053 47.9008ZM43.6618 48.7467C43.625 48.6731 43.5514 48.6364 43.4779 48.6364C43.4043 48.6364 43.294 48.6731 43.1469 48.7099C43.0365 48.7835 42.9262 48.8203 42.8158 48.8203C42.7423 48.8203 42.6687 48.8203 42.5952 48.8203C42.5216 48.7835 42.4848 48.7467 42.4481 48.7099C42.3745 48.5996 42.3745 48.4892 42.3745 48.3789C42.4113 48.2686 42.4848 48.1582 42.6319 48.0479C42.7791 47.9376 42.8894 47.9008 43.0365 47.9008C43.1836 47.9008 43.294 47.9743 43.3675 48.0847L43.2204 48.195C43.1836 48.1214 43.0733 48.0847 42.9997 48.0847C42.8894 48.0847 42.8158 48.1214 42.7055 48.195C42.6319 48.2686 42.5584 48.3421 42.5216 48.4157C42.4848 48.4892 42.5216 48.5628 42.5584 48.6364C42.5952 48.7099 42.6687 48.7467 42.7423 48.7467C42.8158 48.7467 42.9262 48.7099 43.0733 48.6731C43.2204 48.5996 43.3307 48.5628 43.4043 48.5628C43.4779 48.5628 43.5514 48.5628 43.625 48.5628C43.6985 48.5996 43.7353 48.6364 43.7721 48.7099C43.8457 48.8203 43.8824 48.9306 43.8457 49.0409C43.8089 49.1513 43.7353 49.2616 43.5882 49.372C43.4411 49.4823 43.294 49.5191 43.1469 49.5191C42.9997 49.5191 42.8894 49.4455 42.8158 49.372L42.963 49.2616C43.0365 49.3352 43.1101 49.372 43.1836 49.372C43.294 49.372 43.3675 49.3352 43.4779 49.2616C43.5882 49.1881 43.625 49.1145 43.6618 49.0409C43.7353 48.857 43.6985 48.7835 43.6618 48.7467ZM41.0872 49.1513L41.2343 49.372C41.2343 49.2616 41.2343 49.1513 41.3079 49.0777C41.3447 49.0042 41.4182 48.9306 41.4918 48.857C41.6389 48.7835 41.7492 48.7467 41.8596 48.7835C41.9699 48.8203 42.0803 48.8938 42.1906 49.0777L42.7423 49.9236L42.5952 49.9972L42.0435 49.1513C41.9699 49.0409 41.8964 48.9674 41.786 48.9306C41.7125 48.8938 41.6021 48.9306 41.4918 49.0042C41.4182 49.0777 41.3447 49.1513 41.3079 49.2248C41.2711 49.3352 41.2711 49.4455 41.3079 49.5558L41.8964 50.4385L41.7492 50.5121L40.9033 49.2248L41.0872 49.1513ZM39.8367 50.7328C39.7632 50.6224 39.7264 50.4753 39.7264 50.3282C39.7264 50.1811 39.7264 50.0708 39.7999 49.9604C39.8735 49.8501 39.9471 49.7765 40.0574 49.703C40.2413 49.5926 40.4252 49.5926 40.6091 49.6294C40.793 49.703 40.9401 49.8133 41.0504 50.034V50.0708C41.124 50.1811 41.1608 50.3282 41.1608 50.4753C41.1608 50.5857 41.1608 50.7328 41.0872 50.8431C41.0137 50.9535 40.9401 51.027 40.8298 51.1006C40.6459 51.2109 40.462 51.2109 40.2781 51.1741C40.0942 51.1006 39.9471 50.9535 39.8367 50.7328ZM39.9838 50.696C40.0574 50.8431 40.2045 50.9535 40.3148 51.027C40.462 51.1006 40.6091 51.0638 40.7194 50.9902C40.8665 50.9167 40.9401 50.8063 40.9401 50.6592C40.9769 50.5121 40.9401 50.365 40.8298 50.1811V50.1443C40.7562 50.034 40.6826 49.9604 40.6091 49.8869C40.5355 49.8133 40.4252 49.7765 40.3516 49.7765C40.2413 49.7765 40.1677 49.7765 40.0942 49.8501C39.9471 49.9236 39.8735 50.034 39.8735 50.1811C39.8735 50.3282 39.8735 50.4753 39.9838 50.696ZM38.7701 49.9236C38.7701 49.8869 38.7701 49.8501 38.7701 49.8501C38.7701 49.8133 38.8069 49.8133 38.8437 49.7765C38.8805 49.7765 38.9172 49.7397 38.9172 49.7765C38.954 49.7765 38.954 49.8133 38.9908 49.8501C38.9908 49.8869 38.9908 49.9236 38.9908 49.9236C38.9908 49.9604 38.954 49.9604 38.9172 49.9972C38.8805 49.9972 38.8437 50.034 38.8437 49.9972C38.8069 49.9972 38.7701 49.9604 38.7701 49.9236ZM39.8367 51.6155L39.6896 51.689L38.9908 50.3282L39.1379 50.2547L39.8367 51.6155ZM38.2184 50.2547L38.4023 50.6224L38.6966 50.4753L38.7701 50.5857L38.4759 50.7328L38.9172 51.6523C38.954 51.7258 38.9908 51.7626 39.0276 51.7994C39.0644 51.8362 39.1379 51.8362 39.1747 51.7994C39.2115 51.7994 39.2482 51.7626 39.285 51.7258L39.3586 51.8362C39.3218 51.8729 39.2482 51.9097 39.2115 51.9465C39.1011 51.9833 39.0276 51.9833 38.954 51.9465C38.8805 51.9097 38.8069 51.8362 38.7701 51.7258L38.3288 50.8063L38.0713 50.9167L37.9977 50.8063L38.2552 50.696L38.0713 50.3282L38.2184 50.2547ZM38.2184 52.3879C38.1816 52.3511 38.1449 52.2775 38.1081 52.204C38.0713 52.3143 38.0345 52.3879 37.961 52.4614C37.8874 52.535 37.8139 52.6085 37.7035 52.6453C37.5564 52.7189 37.4461 52.7189 37.3357 52.6821C37.2254 52.6453 37.1518 52.5718 37.0783 52.4614C37.0047 52.3143 37.0415 52.204 37.115 52.0568C37.1886 51.9465 37.3357 51.8362 37.5564 51.7258L37.8506 51.6155L37.7771 51.4684C37.7403 51.358 37.6667 51.2845 37.5932 51.2845C37.5196 51.2477 37.4093 51.2477 37.2989 51.3213C37.1886 51.358 37.115 51.4316 37.0783 51.5051C37.0415 51.5787 37.0047 51.689 37.0415 51.7626L36.8944 51.8362C36.8576 51.7258 36.8576 51.6155 36.9312 51.4684C37.0047 51.358 37.115 51.2477 37.2622 51.1741C37.4093 51.1006 37.5564 51.1006 37.6667 51.1374C37.7771 51.1741 37.8874 51.2845 37.961 51.3948L38.2552 52.0568C38.3288 52.204 38.3655 52.2775 38.4391 52.3511L38.2184 52.3879ZM37.6667 52.4614C37.7771 52.4246 37.8506 52.3511 37.9242 52.2775C37.9978 52.204 38.0345 52.0936 38.0345 51.9833L37.9242 51.689L37.63 51.7994C37.4828 51.8729 37.3725 51.9465 37.2989 52.0201C37.2254 52.0936 37.2254 52.204 37.2622 52.3143C37.2989 52.3879 37.3357 52.4614 37.4461 52.4614C37.4828 52.4982 37.5564 52.4982 37.6667 52.4614ZM35.9749 53.0867L36.9312 52.7556L36.9679 52.9028L35.8278 53.3073L35.791 53.197L36.2691 51.689L35.4232 51.9833L35.3864 51.8362L36.453 51.4684L36.4898 51.5787L35.9749 53.0867ZM34.6508 51.5787C34.6508 51.5419 34.6508 51.5051 34.6508 51.5051C34.6508 51.4684 34.6876 51.4684 34.7244 51.4316C34.7612 51.4316 34.7979 51.4316 34.7979 51.4316C34.8347 51.4316 34.8347 51.4684 34.8347 51.5051C34.8347 51.5419 34.8347 51.5787 34.8347 51.5787C34.8347 51.6155 34.7979 51.6155 34.7612 51.6523C34.7244 51.6523 34.6876 51.6523 34.6876 51.6523C34.6876 51.6155 34.6876 51.5787 34.6508 51.5787ZM35.4232 53.3809L35.2761 53.4177L34.8347 51.9465L34.9818 51.9097L35.4232 53.3809ZM33.4371 52.3511L33.5107 52.6085C33.5475 52.4982 33.5842 52.4246 33.6578 52.3511C33.7313 52.2775 33.8049 52.2407 33.9152 52.204C34.0624 52.1672 34.2095 52.1672 34.3198 52.2407C34.4302 52.3143 34.5037 52.4246 34.5405 52.6085L34.7979 53.5648L34.6508 53.6016L34.3934 52.6453C34.3566 52.4982 34.3198 52.4246 34.2463 52.3879C34.1727 52.3511 34.0624 52.3143 33.952 52.3511C33.8417 52.3879 33.7681 52.4246 33.6946 52.4982C33.621 52.5718 33.5842 52.6821 33.5842 52.7924L33.8417 53.8222L33.6946 53.859L33.3268 52.3879L33.4371 52.3511ZM32.9958 54.0061C32.959 53.9694 32.959 53.8958 32.9222 53.7855C32.8854 53.859 32.8119 53.9326 32.7383 54.0061C32.6647 54.0797 32.5544 54.1165 32.4809 54.1165C32.3337 54.1533 32.2234 54.1165 32.1131 54.0797C32.0027 54.0061 31.9292 53.9326 31.9292 53.7855C31.8924 53.6384 31.9292 53.528 32.0395 53.4177C32.1498 53.3073 32.297 53.2338 32.5176 53.197L32.8119 53.1234L32.7751 52.9395C32.7383 52.8292 32.7015 52.7556 32.628 52.7189C32.5544 52.6821 32.4441 52.6453 32.3337 52.6821C32.2234 52.7189 32.1131 52.7556 32.0763 52.8292C32.0027 52.9028 32.0027 52.9763 32.0027 53.0499L31.8188 53.0867C31.782 52.9763 31.8188 52.866 31.9292 52.7556C32.0395 52.6453 32.1498 52.5718 32.297 52.535C32.4809 52.4982 32.5912 52.535 32.7015 52.5718C32.8119 52.6453 32.8854 52.7556 32.9222 52.9028L33.0693 53.6016C33.1061 53.7487 33.1429 53.859 33.1797 53.9326L32.9958 54.0061ZM32.4441 54.0061C32.5544 53.9694 32.6647 53.9326 32.7383 53.859C32.8119 53.7855 32.8486 53.7119 32.8854 53.6016L32.8119 53.2706L32.5176 53.3441C32.3705 53.3809 32.2234 53.4177 32.1498 53.528C32.0763 53.6016 32.0395 53.7119 32.0395 53.7855C32.0395 53.859 32.1131 53.9326 32.1866 53.9694C32.2602 54.0061 32.3705 54.0061 32.4441 54.0061ZM30.2005 53.6751C30.1638 53.4545 30.2005 53.2338 30.2741 53.0867C30.3476 52.9395 30.4948 52.8292 30.6787 52.8292C30.8993 52.7924 31.0465 52.866 31.1936 53.0131L31.1568 52.7924L31.3039 52.7556L31.4878 54.2268C31.5246 54.4107 31.4878 54.5946 31.3775 54.705C31.2671 54.8153 31.1568 54.9256 30.9729 54.9256C30.8626 54.9256 30.7522 54.9256 30.6787 54.8889C30.5683 54.8521 30.4948 54.8153 30.4212 54.7417L30.4948 54.6314C30.6419 54.7785 30.789 54.8153 30.9361 54.7785C31.0832 54.7785 31.1936 54.705 31.2304 54.5946C31.3039 54.4843 31.3407 54.3739 31.3039 54.2268L31.2671 54.0429C31.1936 54.19 31.0465 54.3004 30.8258 54.3372C30.6419 54.3739 30.4948 54.3004 30.3844 54.19C30.3109 54.1165 30.2373 53.9326 30.2005 53.6751ZM30.3844 53.6751C30.4212 53.859 30.458 54.0061 30.5683 54.1165C30.6419 54.2268 30.789 54.2636 30.9361 54.2268C31.1568 54.19 31.2671 54.0797 31.3407 53.8958L31.2671 53.197C31.2304 53.1234 31.1568 53.0499 31.0832 53.0131C31.0097 52.9763 30.8993 52.9395 30.789 52.9763C30.6419 52.9763 30.5315 53.0499 30.4948 53.197C30.3844 53.3073 30.3477 53.4545 30.3844 53.6751ZM29.9431 53.0867C29.9063 53.0867 29.8695 53.0867 29.8327 53.0867C29.7224 53.0867 29.6488 53.1234 29.5753 53.197C29.5017 53.2706 29.4649 53.3441 29.4282 53.4545L29.5017 54.4843H29.3178L29.2075 52.9763H29.3546L29.3914 53.2338C29.4649 53.0499 29.6121 52.9395 29.796 52.9395C29.8327 52.9395 29.8695 52.9395 29.9063 52.9395L29.9431 53.0867ZM28.8397 53.6384C28.8397 53.8222 28.8029 54.0061 28.7661 54.1533C28.6926 54.3004 28.619 54.4107 28.5087 54.4843C28.3983 54.5578 28.2512 54.5946 28.1041 54.5946C27.8467 54.5946 27.6628 54.5211 27.5156 54.3372C27.3685 54.1533 27.295 53.9326 27.295 53.6384V53.4177C27.295 53.2338 27.3317 53.0499 27.3685 52.9028C27.4421 52.7556 27.5156 52.6453 27.626 52.5718C27.7363 52.4982 27.8834 52.4614 28.0306 52.4614C28.1777 52.4614 28.3248 52.4982 28.4351 52.5718C28.5455 52.6453 28.6558 52.7556 28.7294 52.9028C28.8029 53.0499 28.8397 53.197 28.8397 53.3809V53.6384ZM28.6926 53.4177C28.6926 53.1602 28.619 52.9763 28.5087 52.8292C28.3983 52.6821 28.2512 52.6085 28.0306 52.6453C27.8467 52.6453 27.6995 52.7189 27.5892 52.866C27.4789 53.0131 27.4421 53.197 27.4421 53.4545V53.6751C27.4421 53.9326 27.5156 54.1165 27.626 54.2636C27.7363 54.4107 27.8834 54.4843 28.1041 54.4843C28.288 54.4843 28.4351 54.4107 28.5455 54.2636C28.6558 54.1165 28.6926 53.9326 28.6926 53.6751V53.4177ZM25.6031 54.5578C25.3089 54.5578 25.125 54.4107 25.0146 54.1533C24.9779 54.0429 24.9411 53.8958 24.9411 53.7487V53.6751C24.9411 53.528 24.9779 53.3809 25.0514 53.2706C25.125 53.1602 25.1985 53.0867 25.3089 53.0131C25.4192 52.9395 25.5296 52.9395 25.6399 52.9395C25.8238 52.9395 25.9709 53.0131 26.0812 53.1602C26.1916 53.3073 26.2284 53.4545 26.1916 53.6751V53.7855L25.0882 53.7119V53.7487C25.0882 53.9326 25.125 54.0797 25.1985 54.19C25.2721 54.3004 25.4192 54.3739 25.5663 54.3739C25.6399 54.3739 25.7135 54.3739 25.8238 54.3372C25.8973 54.3004 25.9709 54.2636 26.0077 54.19L26.118 54.2636C26.0077 54.4843 25.8238 54.5578 25.6031 54.5578ZM25.6399 53.1234C25.5296 53.1234 25.4192 53.1602 25.3089 53.2338C25.1985 53.3073 25.1618 53.4545 25.125 53.6016L26.0445 53.6751V53.6384C26.0445 53.4912 26.0077 53.3809 25.9341 53.2706C25.8974 53.1602 25.787 53.1234 25.6399 53.1234ZM24.0216 54.2636C24.1319 54.2636 24.2423 54.2636 24.3158 54.19C24.3894 54.1165 24.463 54.0429 24.463 53.9326L24.6101 53.9694C24.6101 54.0429 24.5365 54.1533 24.4997 54.2268C24.4262 54.3004 24.3526 54.3372 24.2791 54.3739C24.1687 54.4107 24.0952 54.4107 23.9848 54.4107C23.8009 54.3739 23.6538 54.3004 23.5435 54.1533C23.4331 54.0061 23.3964 53.8222 23.4331 53.5648V53.528C23.4331 53.3809 23.5067 53.2706 23.5435 53.1234C23.617 53.0131 23.6906 52.9395 23.8009 52.9028C23.9113 52.866 24.0216 52.8292 24.1687 52.866C24.3526 52.9028 24.463 52.9395 24.5733 53.0499C24.6836 53.1602 24.7204 53.3073 24.6836 53.4545L24.5365 53.4177C24.5365 53.3073 24.4997 53.197 24.463 53.1234C24.3894 53.0499 24.3158 52.9763 24.1687 52.9763C24.0216 52.9395 23.8745 53.0131 23.8009 53.0867C23.6906 53.197 23.6538 53.3441 23.617 53.528V53.5648C23.5803 53.7487 23.617 53.9326 23.6906 54.0429C23.7642 54.19 23.8745 54.2268 24.0216 54.2636ZM22.9182 54.2268L22.7343 54.19L22.9918 52.6821L23.1757 52.7189L22.9182 54.2268ZM23.0653 52.2407C23.0653 52.1672 23.1389 52.1304 23.2125 52.1304C23.2492 52.1304 23.286 52.1672 23.286 52.1672C23.286 52.204 23.3228 52.204 23.286 52.2407C23.286 52.2775 23.2492 52.3143 23.2492 52.3143C23.2125 52.3511 23.1757 52.3511 23.1757 52.3143C23.1389 52.3143 23.1021 52.2775 23.1021 52.2775C23.0653 52.3143 23.0653 52.2775 23.0653 52.2407ZM21.8516 53.7855L22.5872 52.6085L22.7711 52.6453L21.8884 54.0429L21.7413 54.0061L21.4838 52.3879L21.6677 52.4246L21.8516 53.7855ZM21.3367 52.4982C21.2999 52.4982 21.2632 52.4614 21.2264 52.4614C21.116 52.4246 21.0425 52.4246 20.9321 52.4614C20.8586 52.4982 20.785 52.5718 20.7115 52.6821L20.454 53.7119L20.3069 53.6751L20.6747 52.204L20.8218 52.2407L20.7482 52.4614C20.8954 52.3143 21.0425 52.2407 21.2264 52.3143C21.2632 52.3143 21.2999 52.3511 21.3367 52.3511V52.4982ZM19.3506 53.4177C19.0932 53.3441 18.9461 53.1602 18.8725 52.9028C18.8357 52.7556 18.8725 52.6453 18.9093 52.4982V52.4246C18.9461 52.2775 19.0196 52.1672 19.0932 52.0568C19.1667 51.9465 19.2771 51.9097 19.3874 51.8729C19.4977 51.8362 19.6081 51.8362 19.7184 51.8729C19.9023 51.9465 20.0127 52.0201 20.0862 52.204C20.1598 52.3511 20.1598 52.535 20.0862 52.7556L20.0494 52.8292L19.0196 52.4982V52.535C18.9828 52.7189 18.9828 52.866 19.0196 52.9763C19.0932 53.1234 19.1667 53.197 19.3139 53.2706C19.3874 53.3073 19.4977 53.3073 19.5713 53.3073C19.6449 53.3073 19.7184 53.2706 19.792 53.197L19.8655 53.3073C19.792 53.4545 19.6081 53.4912 19.3506 53.4177ZM19.7552 52.0201C19.6449 51.9833 19.5345 51.9833 19.4242 52.0568C19.3139 52.1304 19.2403 52.2407 19.1667 52.3511L20.0494 52.6085C20.0862 52.4614 20.0862 52.3511 20.0494 52.2407C19.9759 52.1304 19.9023 52.0568 19.7552 52.0201ZM18.4311 52.535C18.4679 52.4246 18.4679 52.3143 18.4311 52.2407C18.3944 52.1672 18.2473 52.0568 18.1001 51.9097C17.9162 51.7626 17.8059 51.6523 17.7323 51.5419C17.622 51.3948 17.622 51.2477 17.6588 51.1006C17.7323 50.9535 17.8059 50.8431 17.9898 50.8063C18.1369 50.7696 18.3208 50.7696 18.5047 50.8431C18.615 50.8799 18.7254 50.9535 18.8357 51.0638C18.9093 51.1374 18.9828 51.2477 18.9828 51.358C19.0196 51.4684 18.9828 51.5787 18.9461 51.689L18.7989 51.6155C18.8357 51.4684 18.8357 51.358 18.7989 51.2477C18.7254 51.1374 18.6518 51.0638 18.4679 50.9902C18.3208 50.9167 18.1737 50.9167 18.0634 50.9535C17.953 50.9902 17.8795 51.0638 17.8427 51.1741C17.8059 51.2845 17.8059 51.358 17.8795 51.4684C17.9162 51.5419 18.0266 51.6523 18.2105 51.7626C18.3576 51.8729 18.4679 51.9833 18.5415 52.0568C18.615 52.1304 18.6518 52.2407 18.6886 52.3143C18.6886 52.4246 18.6886 52.4982 18.6518 52.5718C18.5783 52.7189 18.5047 52.8292 18.3208 52.866C18.1737 52.9028 17.9898 52.9028 17.8059 52.8292C17.6588 52.7924 17.5484 52.7189 17.4749 52.6085C17.3645 52.535 17.3278 52.4246 17.291 52.3143C17.2542 52.204 17.291 52.0936 17.3278 51.9833L17.4749 52.0568C17.4381 52.204 17.4381 52.3143 17.5117 52.4246C17.5852 52.535 17.6956 52.6453 17.8795 52.6821C18.0266 52.7556 18.1737 52.7556 18.284 52.7189C18.3208 52.7189 18.3944 52.6453 18.4311 52.535ZM16.7393 50.9167C16.7025 50.8799 16.6657 50.8799 16.629 50.8431C16.5554 50.8063 16.4451 50.7696 16.3347 50.8063C16.2612 50.8431 16.1508 50.8799 16.0773 50.9535L15.6359 51.9097L15.4888 51.8362L16.1508 50.4385L16.2979 50.5121L16.1876 50.7328C16.3347 50.6224 16.5186 50.5857 16.7025 50.6592C16.7393 50.696 16.7761 50.696 16.8129 50.7328L16.7393 50.9167ZM14.3119 50.3282C14.3854 50.1811 14.459 50.1075 14.5693 50.034C14.6797 49.9604 14.79 49.9236 14.9003 49.9236C15.0107 49.9236 15.1578 49.9604 15.2681 49.9972C15.452 50.1075 15.5624 50.2179 15.5991 50.4385C15.6359 50.6224 15.5991 50.8063 15.4888 51.027V51.0638C15.4152 51.1741 15.3417 51.2845 15.2313 51.358C15.121 51.4316 15.0107 51.4684 14.9003 51.4684C14.79 51.4684 14.6429 51.4316 14.5325 51.3948C14.3486 51.2845 14.2383 51.1741 14.2015 50.9535C14.128 50.7696 14.1647 50.5489 14.3119 50.3282ZM14.4222 50.4385C14.3486 50.5857 14.3119 50.7696 14.3486 50.9167C14.3854 51.0638 14.459 51.1741 14.6061 51.2477C14.7532 51.3213 14.8636 51.3213 15.0107 51.2845C15.1578 51.2109 15.2681 51.1006 15.3417 50.9535V50.9167C15.4152 50.8063 15.4152 50.696 15.452 50.5857C15.452 50.4753 15.452 50.4018 15.4152 50.2914C15.3785 50.2179 15.3049 50.1443 15.2313 50.1075C15.0842 50.034 14.9739 50.034 14.8268 50.0708C14.6429 50.1443 14.5325 50.2547 14.4222 50.4385ZM13.2453 50.5857L13.9808 49.4087L13.7602 49.2616L13.8337 49.1513L14.0544 49.2984L14.1647 49.1513C14.2383 49.0042 14.3486 48.9306 14.459 48.8938C14.5693 48.857 14.6797 48.8938 14.8268 48.9674C14.8636 49.0042 14.9371 49.0409 14.9739 49.0777L14.9003 49.1881C14.8636 49.1513 14.8268 49.1145 14.79 49.0777C14.7164 49.0409 14.6429 49.0042 14.5693 49.0409C14.4958 49.0777 14.4222 49.1145 14.3854 49.2248L14.2751 49.372L14.5693 49.5558L14.4958 49.6662L14.2015 49.4823L13.4659 50.6592L13.2453 50.5857ZM12.5097 49.372C12.3626 49.5191 12.2154 49.6294 12.0315 49.6294C11.8476 49.6294 11.6638 49.5926 11.5166 49.4455C11.4063 49.3719 11.296 49.2616 11.2592 49.1145C11.2224 48.9674 11.1856 48.8203 11.2224 48.7099C11.2592 48.5628 11.3327 48.4157 11.4063 48.2686L11.5534 48.0479C11.6638 47.9008 11.7741 47.7904 11.9212 47.7169C12.0315 47.6433 12.1787 47.6065 12.3258 47.6065C12.4729 47.6065 12.62 47.6801 12.7304 47.7537C12.9143 47.9008 13.0246 48.0479 13.0614 48.195C13.0981 48.3789 13.0614 48.526 12.951 48.7099L12.8039 48.5996C12.9878 48.3053 12.9142 48.0479 12.6568 47.8272C12.5097 47.7169 12.3258 47.6801 12.1787 47.7169C11.9948 47.7537 11.8476 47.9008 11.7005 48.0847L11.5534 48.3053C11.4063 48.4892 11.3327 48.6731 11.3695 48.857C11.3695 49.0409 11.4431 49.188 11.5902 49.2984C11.7373 49.4087 11.8844 49.4455 11.9948 49.4455C12.1051 49.4455 12.2522 49.3719 12.3626 49.2248L12.5097 49.372ZM11.1121 48.0111C11.0017 48.1582 10.8546 48.2686 10.7075 48.3421C10.5604 48.4157 10.4133 48.4157 10.2661 48.4157C10.119 48.3789 9.9719 48.3421 9.86157 48.2318C9.67767 48.0847 9.56733 47.9008 9.56733 47.6433C9.56733 47.4226 9.64089 47.202 9.86157 46.9813L10.0087 46.8342C10.119 46.6871 10.2661 46.5767 10.4133 46.5032C10.5604 46.4296 10.7075 46.3928 10.8546 46.4296C11.0017 46.4664 11.1121 46.5032 11.2592 46.6135C11.3695 46.7238 11.4799 46.8342 11.5166 46.9813C11.5534 47.1284 11.5534 47.2755 11.5166 47.4226C11.4799 47.5698 11.4063 47.7169 11.296 47.864L11.1121 48.0111ZM11.1121 47.7169C11.2592 47.533 11.3695 47.3491 11.3695 47.1652C11.3695 46.9813 11.296 46.8342 11.1488 46.7238C11.0017 46.6135 10.8546 46.5399 10.6707 46.5767C10.4868 46.6135 10.3397 46.7238 10.1558 46.9077L10.0087 47.0549C9.86157 47.2387 9.78801 47.4226 9.75123 47.6065C9.75123 47.7904 9.82479 47.9376 9.9719 48.0847C10.119 48.195 10.3029 48.2686 10.45 48.2318C10.6339 48.195 10.781 48.0847 10.9649 47.9008L11.1121 47.7169ZM9.23632 46.9445C9.30988 46.871 9.34665 46.7606 9.34665 46.6503C9.34665 46.5399 9.2731 46.3928 9.16276 46.2089C9.05242 46.025 8.97886 45.8779 8.97886 45.7308C8.94208 45.5469 8.97886 45.4366 9.0892 45.2894C9.19954 45.1791 9.34665 45.1423 9.49377 45.1423C9.64089 45.1791 9.82479 45.2527 9.9719 45.3998C10.0822 45.5101 10.1558 45.5837 10.1926 45.694C10.2294 45.8044 10.2294 45.9147 10.2294 46.025C10.1926 46.1354 10.1558 46.2457 10.0822 46.3193L9.9719 46.2089C10.0822 46.0986 10.119 45.9883 10.119 45.8779C10.119 45.7676 10.0455 45.6205 9.93512 45.5101C9.82478 45.3998 9.71445 45.3262 9.60411 45.3262C9.49377 45.2894 9.38343 45.3262 9.30988 45.4366C9.23632 45.5101 9.19954 45.6205 9.23632 45.694C9.23632 45.8044 9.30988 45.9515 9.42021 46.0986C9.53055 46.2457 9.56733 46.3928 9.60411 46.5032C9.64089 46.6135 9.64089 46.6871 9.64089 46.7974C9.60411 46.9077 9.56733 46.9813 9.49377 47.0549C9.38343 47.1652 9.23632 47.2387 9.0892 47.202C8.94208 47.1652 8.75818 47.0916 8.61107 46.9445C8.50073 46.8342 8.42717 46.7238 8.39039 46.6135C8.35361 46.5032 8.31683 46.3928 8.35361 46.2825C8.39039 46.1721 8.42717 46.0618 8.50073 45.9882L8.61107 46.0986C8.50073 46.2089 8.46395 46.3193 8.50073 46.4664C8.53751 46.6135 8.61107 46.7238 8.72141 46.871C8.83174 46.9813 8.94208 47.0549 9.0892 47.0549C9.05242 47.0549 9.16276 47.0181 9.23632 46.9445Z" fill="white"/>
<path d="M10.4502 26.3848H45.648" stroke="white" strokeWidth="0.2626" stroke-linecap="round" stroke-linejoin="round"/>
<path fillRule="evenodd" clipRule="evenodd" d="M38.1816 42.8263C38.1816 42.6424 38.2183 42.4953 38.2919 42.3482C38.3655 42.2011 38.439 42.0907 38.5861 42.0172C38.6965 41.9436 38.8436 41.9068 38.9907 41.9068C39.2482 41.9068 39.4321 41.9804 39.5792 42.1643C39.7263 42.3482 39.7998 42.5689 39.7998 42.8263V42.8631C39.7998 43.047 39.7631 43.1941 39.6895 43.3412C39.616 43.4883 39.5424 43.5987 39.3953 43.6722C39.2482 43.7458 39.1378 43.7826 38.9539 43.7826C38.6965 43.7826 38.5126 43.709 38.3655 43.5251C38.2551 43.3412 38.1816 43.1205 38.1816 42.8263ZM38.5126 42.8631C38.5126 43.047 38.5494 43.2309 38.6597 43.3412C38.7333 43.4516 38.8804 43.5251 39.0275 43.5251C39.1746 43.5251 39.3217 43.4516 39.3953 43.3412C39.4688 43.2309 39.5424 43.047 39.5424 42.8263C39.5424 42.6424 39.5056 42.4585 39.3953 42.3482C39.3217 42.2378 39.1746 42.1643 39.0275 42.1643C38.8804 42.1643 38.77 42.2378 38.6597 42.3482C38.5494 42.4585 38.5126 42.6424 38.5126 42.8631ZM37.6667 43.2677C37.6667 43.1941 37.6299 43.1205 37.5563 43.0838C37.4828 43.047 37.3724 43.0102 37.2253 42.9734C37.0782 42.9366 36.9311 42.8999 36.8575 42.8631C36.7839 42.8263 36.7104 42.7528 36.6736 42.716C36.6368 42.6424 36.6 42.5689 36.6 42.4953C36.6 42.3482 36.6736 42.2378 36.7839 42.1275C36.8943 42.0172 37.0782 41.9804 37.2621 41.9804C37.446 41.9804 37.6299 42.0172 37.7402 42.1275C37.8505 42.2378 37.9241 42.3482 37.9241 42.5321H37.6299C37.6299 42.4585 37.5931 42.385 37.5195 42.3114C37.446 42.2378 37.3724 42.2378 37.2621 42.2378C37.1517 42.2378 37.0782 42.2746 37.0046 42.3114C36.9311 42.3482 36.8943 42.4217 36.8943 42.4953C36.8943 42.5689 36.9311 42.6424 36.9678 42.6792C37.0414 42.716 37.115 42.7528 37.2989 42.7895C37.446 42.8263 37.5563 42.8631 37.6667 42.8999C37.777 42.9367 37.8138 43.0102 37.8873 43.0838C37.9241 43.1573 37.9609 43.2309 37.9609 43.3412C37.9609 43.4883 37.8873 43.6355 37.777 43.709C37.6666 43.8194 37.4828 43.8561 37.2989 43.8561C37.1517 43.8561 37.0414 43.8194 36.9311 43.7826C36.8207 43.7458 36.7472 43.6722 36.6736 43.5619C36.6 43.4883 36.5633 43.378 36.5633 43.2677H36.8575C36.8575 43.378 36.8943 43.4516 36.9678 43.5251C37.0414 43.5987 37.1517 43.5987 37.2621 43.5987C37.3724 43.5987 37.4828 43.5619 37.5563 43.5251C37.6299 43.4148 37.6667 43.3412 37.6667 43.2677ZM36.0484 42.9367H36.3794V43.1941H36.0484V43.7458H35.7541V43.1941H34.6507V43.0102L35.7173 41.3551H36.0484V42.9367ZM35.0185 42.9367H35.7541V41.7597L35.7173 41.8333L35.0185 42.9367ZM33.8416 43.5251C33.9519 43.5251 34.0623 43.4883 34.1358 43.4148C34.2094 43.3412 34.2462 43.2677 34.2829 43.1573H34.5772C34.5772 43.2677 34.5404 43.378 34.4668 43.4516C34.3933 43.5251 34.3197 43.6355 34.2094 43.6722C34.0991 43.709 33.9887 43.7458 33.8784 43.7458C33.6209 43.7458 33.437 43.6722 33.2899 43.4883C33.1428 43.3412 33.0692 43.1205 33.0692 42.8263V42.7895C33.0692 42.6056 33.106 42.4585 33.1796 42.3114C33.2531 42.1643 33.3267 42.0539 33.437 41.9804C33.5474 41.9068 33.6945 41.87 33.8416 41.87C34.0255 41.87 34.2094 41.9436 34.3565 42.0539C34.5036 42.1643 34.5772 42.3114 34.5772 42.5321H34.2829C34.2829 42.4217 34.2462 42.3114 34.1358 42.2378C34.0623 42.1643 33.9519 42.1275 33.8416 42.1275C33.6945 42.1275 33.5841 42.2011 33.4738 42.3114C33.4002 42.4217 33.3635 42.5689 33.3635 42.7895V42.8631C33.3635 43.0838 33.4002 43.2309 33.4738 43.3412C33.5841 43.4516 33.6945 43.5251 33.8416 43.5251ZM31.2303 42.8263C31.2303 42.6424 31.267 42.4953 31.3406 42.3482C31.4142 42.2011 31.4877 42.0907 31.6348 42.0172C31.7452 41.9436 31.8923 41.9068 32.0394 41.9068C32.2969 41.9068 32.4808 41.9804 32.6279 42.1643C32.775 42.3482 32.8486 42.5689 32.8486 42.8263V42.8631C32.8486 43.047 32.8118 43.1941 32.7382 43.3412C32.6647 43.4883 32.5911 43.5987 32.444 43.6722C32.2969 43.7458 32.1865 43.7826 32.0026 43.7826C31.7452 43.7826 31.5613 43.709 31.4142 43.5251C31.3038 43.3412 31.2303 43.1205 31.2303 42.8263ZM31.5245 42.8631C31.5245 43.047 31.5613 43.2309 31.6716 43.3412C31.7452 43.4516 31.8923 43.5251 32.0394 43.5251C32.1865 43.5251 32.3336 43.4516 32.4072 43.3412C32.4808 43.2309 32.5543 43.047 32.5543 42.8263C32.5543 42.6424 32.5175 42.4585 32.4072 42.3482C32.3336 42.2378 32.1865 42.1643 32.0394 42.1643C31.8923 42.1643 31.782 42.2378 31.6716 42.3482C31.5613 42.4585 31.5245 42.6424 31.5245 42.8631ZM30.6786 43.2677C30.6786 43.1941 30.6418 43.1205 30.5682 43.0838C30.4947 43.047 30.3843 43.0102 30.2372 42.9734C30.0901 42.9366 29.943 42.8999 29.8694 42.8631C29.7959 42.8263 29.7223 42.7528 29.6855 42.716C29.6488 42.6424 29.612 42.5689 29.612 42.4953C29.612 42.3482 29.6855 42.2378 29.7959 42.1275C29.9062 42.0172 30.0901 41.9804 30.274 41.9804C30.4579 41.9804 30.6418 42.0172 30.7521 42.1275C30.8625 42.2378 30.936 42.3482 30.936 42.5321H30.6418C30.6418 42.4585 30.605 42.385 30.5315 42.3114C30.4579 42.2378 30.3843 42.2378 30.274 42.2378C30.1637 42.2378 30.0901 42.2746 30.0166 42.3114C29.943 42.3482 29.9062 42.4217 29.9062 42.4953C29.9062 42.5689 29.943 42.6424 29.9798 42.6792C30.0533 42.716 30.1269 42.7528 30.3108 42.7895C30.4579 42.8263 30.5682 42.8631 30.6786 42.8999C30.7889 42.9367 30.8257 43.0102 30.8993 43.0838C30.936 43.1573 30.9728 43.2309 30.9728 43.3412C30.9728 43.4883 30.8993 43.6355 30.7889 43.709C30.6786 43.8194 30.4947 43.8561 30.3108 43.8561C30.1637 43.8561 30.0533 43.8194 29.943 43.7826C29.8327 43.7458 29.7591 43.6722 29.6855 43.5619C29.612 43.4883 29.5752 43.378 29.5752 43.2677H29.8694C29.8694 43.378 29.9062 43.4516 29.9798 43.5251C30.0533 43.5987 30.1637 43.5987 30.274 43.5987C30.3843 43.5987 30.4947 43.5619 30.5682 43.5251C30.6418 43.4148 30.6786 43.3412 30.6786 43.2677ZM28.3983 43.9297H28.1408L29.1338 41.3184H29.3913L28.3983 43.9297ZM26.449 42.8263C26.449 42.5321 26.5225 42.3114 26.6329 42.1643C26.7432 42.0172 26.9271 41.9068 27.1478 41.9068C27.3684 41.9068 27.5523 41.9804 27.6627 42.1275V41.9436H27.9569V43.6722C27.9569 43.8929 27.8834 44.0768 27.7362 44.2239C27.5891 44.371 27.4052 44.4078 27.1845 44.4078C27.0742 44.4078 26.9271 44.371 26.8168 44.3343C26.7064 44.2975 26.5961 44.1871 26.5225 44.1136L26.6696 43.9297C26.8167 44.0768 26.9639 44.1871 27.1478 44.1871C27.2949 44.1871 27.4052 44.1504 27.4788 44.0768C27.5523 44.0033 27.5891 43.8929 27.5891 43.709V43.5619C27.4788 43.709 27.2949 43.7826 27.0742 43.7826C26.8535 43.7826 26.7064 43.709 26.5593 43.5251C26.5225 43.3412 26.449 43.1205 26.449 42.8263ZM26.78 42.8631C26.78 43.047 26.8167 43.2309 26.8903 43.3412C26.9639 43.4516 27.0742 43.5251 27.2213 43.5251C27.4052 43.5251 27.5523 43.4516 27.6259 43.2677V42.4585C27.5156 42.2746 27.4052 42.2011 27.2213 42.2011C27.0742 42.2011 26.9639 42.2746 26.8903 42.385C26.8167 42.4585 26.78 42.6424 26.78 42.8631ZM26.3386 42.2378C26.3018 42.2378 26.2283 42.2378 26.1915 42.2378C26.0076 42.2378 25.8605 42.3114 25.7869 42.4953V43.7458H25.4927V41.9804H25.7869V42.2011C25.8973 42.0539 26.0444 41.9804 26.2283 41.9804C26.3018 41.9804 26.3386 41.9804 26.3754 42.0172L26.3386 42.2378ZM23.5434 42.8263C23.5434 42.6424 23.5802 42.4953 23.6537 42.3482C23.7273 42.2011 23.8008 42.0907 23.948 42.0172C24.0583 41.9436 24.2054 41.9068 24.3525 41.9068C24.61 41.9068 24.7939 41.9804 24.941 42.1643C25.0881 42.3482 25.1617 42.5689 25.1617 42.8263V42.8631C25.1617 43.047 25.1249 43.1941 25.0513 43.3412C24.9778 43.4883 24.9042 43.5987 24.7571 43.6722C24.61 43.7458 24.4997 43.7826 24.3158 43.7826C24.0583 43.7826 23.8744 43.709 23.7273 43.5251C23.6169 43.3412 23.5434 43.1205 23.5434 42.8263ZM23.8744 42.8631C23.8744 43.047 23.9112 43.2309 24.0215 43.3412C24.0951 43.4516 24.2422 43.5251 24.3893 43.5251C24.5364 43.5251 24.6835 43.4516 24.7571 43.3412C24.8307 43.2309 24.9042 43.047 24.9042 42.8263C24.9042 42.6424 24.8674 42.4585 24.7571 42.3482C24.6835 42.2378 24.5364 42.1643 24.3893 42.1643C24.2422 42.1643 24.1319 42.2378 24.0215 42.3482C23.9112 42.4585 23.8744 42.6424 23.8744 42.8631ZM22.8446 43.5619C22.8446 43.5251 22.8446 43.4516 22.8814 43.4148C22.9181 43.378 22.9549 43.378 23.0285 43.378C23.102 43.378 23.1388 43.378 23.1756 43.4148C23.2124 43.4516 23.2124 43.4883 23.2124 43.5619C23.2124 43.5987 23.2124 43.6355 23.1756 43.6722C23.1388 43.709 23.102 43.709 23.0285 43.709C22.9549 43.709 22.9181 43.709 22.8814 43.6722C22.8446 43.6722 22.8446 43.5987 22.8446 43.5619ZM22.1826 43.7458C22.1826 43.709 22.1458 43.6355 22.1458 43.5619C21.9987 43.709 21.8515 43.7826 21.6309 43.7826C21.447 43.7826 21.2999 43.7458 21.1895 43.6355C21.0792 43.5251 21.0056 43.4148 21.0056 43.2677C21.0056 43.0838 21.0792 42.9367 21.2263 42.8263C21.3734 42.716 21.5573 42.6792 21.8148 42.6792H22.109V42.5321C22.109 42.4217 22.0722 42.3482 21.9987 42.2746C21.9251 42.2011 21.8515 42.1643 21.7044 42.1643C21.5941 42.1643 21.5205 42.2011 21.447 42.2378C21.3734 42.2746 21.3366 42.3482 21.3366 42.4217H21.0792C21.0792 42.3482 21.116 42.2378 21.1895 42.1643C21.2631 42.0907 21.3366 42.0172 21.447 41.9804C21.5573 41.9436 21.6676 41.9068 21.8148 41.9068C22.0354 41.9068 22.1826 41.9436 22.2929 42.0539C22.4032 42.1643 22.4768 42.3114 22.4768 42.4953V43.3044C22.4768 43.4516 22.5136 43.5987 22.5503 43.709V43.7458H22.1826ZM21.6676 43.4883C21.778 43.4883 21.8515 43.4516 21.9251 43.4148C21.9987 43.378 22.0722 43.3044 22.109 43.2309V42.8631H21.8883C21.5205 42.8631 21.3366 42.9734 21.3366 43.1941C21.3366 43.3044 21.3734 43.378 21.447 43.4148C21.4837 43.4516 21.5941 43.4883 21.6676 43.4883ZM20.7849 42.8631C20.7849 43.1205 20.7114 43.3412 20.601 43.5251C20.4907 43.709 20.3068 43.7826 20.0861 43.7826C19.8655 43.7826 19.7183 43.709 19.5712 43.5619V44.4078H19.277V41.9436H19.5712V42.1275C19.6816 41.9804 19.8655 41.9068 20.0861 41.9068C20.3068 41.9068 20.4539 41.9804 20.601 42.1643C20.7114 42.3114 20.7849 42.5321 20.7849 42.8631ZM20.4907 42.8263C20.4907 42.6424 20.4539 42.4585 20.3804 42.3482C20.3068 42.2378 20.1597 42.1643 20.0126 42.1643C19.8287 42.1643 19.6816 42.2378 19.608 42.4217V43.2677C19.6816 43.4148 19.8287 43.5251 20.0126 43.5251C20.1597 43.5251 20.27 43.4516 20.3436 43.3412C20.4539 43.2309 20.4907 43.047 20.4907 42.8263ZM18.3207 43.5251C18.4311 43.5251 18.5414 43.4883 18.615 43.4148C18.6885 43.3412 18.7253 43.2677 18.7621 43.1573H19.0563C19.0563 43.2677 19.0195 43.378 18.946 43.4516C18.8724 43.5251 18.7989 43.6355 18.6885 43.6722C18.5782 43.709 18.4678 43.7458 18.3575 43.7458C18.1 43.7458 17.9162 43.6722 17.769 43.4883C17.6219 43.3412 17.5484 43.1205 17.5484 42.8263V42.7895C17.5484 42.6056 17.5851 42.4585 17.6587 42.3114C17.7323 42.1643 17.8058 42.0539 17.9162 41.9804C18.0265 41.9068 18.1736 41.87 18.3207 41.87C18.5046 41.87 18.6885 41.9436 18.8356 42.0539C18.9828 42.1643 19.0563 42.3114 19.0563 42.5321H18.7621C18.7621 42.4217 18.7253 42.3114 18.615 42.2378C18.5414 42.1643 18.4311 42.1275 18.3207 42.1275C18.1736 42.1275 18.0633 42.2011 17.9529 42.3114C17.8794 42.4217 17.8426 42.5689 17.8426 42.7895V42.8631C17.8426 43.0838 17.8794 43.2309 17.9529 43.3412C18.0265 43.4516 18.1736 43.5251 18.3207 43.5251ZM16.8863 41.4655C16.8863 41.4287 16.8863 41.3919 16.9231 41.3551C16.9599 41.3184 16.9967 41.3184 17.0702 41.3184C17.1438 41.3184 17.1806 41.3184 17.2173 41.3551C17.2541 41.3919 17.2541 41.4287 17.2541 41.4655C17.2541 41.5023 17.2541 41.539 17.2173 41.5758C17.1806 41.6126 17.1438 41.6126 17.0702 41.6126C16.9967 41.6126 16.9599 41.6126 16.9231 41.5758C16.8863 41.5758 16.8863 41.539 16.8863 41.4655ZM16.8863 43.7458H17.1806V41.9804H16.8863V43.7458ZM16.2243 43.7458C16.2243 43.709 16.1875 43.6355 16.1875 43.5619C16.0404 43.709 15.8933 43.7826 15.6726 43.7826C15.4887 43.7826 15.3416 43.7458 15.2313 43.6355C15.1209 43.5251 15.0474 43.4148 15.0474 43.2677C15.0474 43.0838 15.1209 42.9367 15.268 42.8263C15.4152 42.716 15.5991 42.6792 15.8565 42.6792H16.1507V42.5321C16.1507 42.4217 16.114 42.3482 16.0404 42.2746C15.9668 42.2011 15.8933 42.1643 15.7462 42.1643C15.6358 42.1643 15.5623 42.2011 15.4887 42.2378C15.4152 42.2746 15.3784 42.3482 15.3784 42.4217H15.0841C15.0841 42.3482 15.1209 42.2378 15.1945 42.1643C15.268 42.0907 15.3416 42.0172 15.4519 41.9804C15.5623 41.9436 15.6726 41.9068 15.8197 41.9068C16.0404 41.9068 16.1875 41.9436 16.2979 42.0539C16.4082 42.1643 16.4818 42.3114 16.4818 42.4953V43.3044C16.4818 43.4516 16.5185 43.5987 16.5553 43.709V43.7458H16.2243ZM15.7094 43.4883C15.8197 43.4883 15.8933 43.4516 15.9668 43.4148C16.0404 43.378 16.114 43.3044 16.1507 43.2309V42.8631H15.9301C15.5623 42.8631 15.3784 42.9734 15.3784 43.1941C15.3784 43.3044 15.4152 43.378 15.4887 43.4148C15.5255 43.4516 15.5991 43.4883 15.7094 43.4883Z" fill="white"/>
<path fillRule="evenodd" clipRule="evenodd" d="M52.5993 50.7344V50.955H52.1947V51.9849H51.9373V50.955H51.5327V50.7344H52.5993ZM53.9234 51.9849L53.8866 51.2493C53.8866 51.1389 53.8866 51.0286 53.8866 50.9183C53.8498 51.0286 53.813 51.1757 53.7763 51.2861L53.5556 51.9849H53.2981L53.0774 51.2861C53.0407 51.1757 53.0039 51.0286 53.0039 50.9183C53.0039 51.0286 53.0039 51.1389 53.0039 51.2493L52.9671 51.9849H52.7464L52.82 50.7344H53.1878L53.4085 51.3228C53.4452 51.4332 53.4452 51.5067 53.482 51.6539C53.5188 51.5435 53.5556 51.4332 53.5556 51.3596L53.7763 50.7344H54.144L54.2544 51.9849H53.9234Z" fill="#231F20"/>
</g>
<defs>
<clipPath id="clip0_2118_15518">
<rect width="60" height="60" fill="white"/>
</clipPath>
</defs>
</svg>
